<mxfile host="app.diagrams.net" modified="2023-02-21T08:17:30.991Z" agent="5.0 (Windows NT 10.0; Win64; x64) AppleWebKit/537.36 (KHTML, like Gecko) Chrome/110.0.0.0 Safari/537.36" etag="3yRRA8J6-N4hu1GUEIJO" version="20.8.20" type="github">
  <diagram name="第 1 页" id="OIRu5DMD7ElwCjBqJBQU">
    <mxGraphModel dx="785" dy="450" grid="0" gridSize="10" guides="1" tooltips="1" connect="1" arrows="1" fold="1" page="1" pageScale="1" pageWidth="827" pageHeight="1169" math="0" shadow="0">
      <root>
        <mxCell id="0" />
        <mxCell id="1" parent="0" />
        <mxCell id="CcqkCIG_LshQ7bS7BJzC-2" value="" style="shape=image;verticalLabelPosition=bottom;labelBackgroundColor=default;verticalAlign=top;aspect=fixed;imageAspect=0;image=data:image/png,iVBORw0KGgoAAAANSUhEUgAAAggAAADZCAYAAABFAcjAAAAAAXNSR0IArs4c6QAAIABJREFUeF7snQWUVdUXxj+6u7tBaUFK/0hII9LSJd3d3d2NICktIYKBhLSAEgoC0kpIdwwM/NfvDBef48y8N/lmmHvWYgEzN/e99+xvf/vb+0R4+fLlS9nDtoBtAdsCtgVsC9gWsC3gYIEINkCw3wfbArYFbAvYFrAtYFvAuwVsgGC/E7YFbAvYFrAtYFvAtsB/LGADBPulsC1gW8C2gG0B2wK2BWyAYL8DtgVsC9gWsC1gW8C2gHML2AyCcxvZW9gWsC1gW8C2gG2BcGcBGyCEu0du37BtAdsCtgVsC9gWcG4BGyA4t5G9hW0B2wK2BWwL2BYIdxawAUK4e+T2DdsWsC1gW8C2gG0B5xawAYJzG9lb2BawLWBbwLaAbYFwZwEbIIS7R27fsG0B2wK2BWwL2BZwbgEbIDi3kb2FbQHbArYFbAvYFgh3FrABQrh75PYN2xawLWBbwLaAbQHnFrABgnMb2Vt4swDre507d05Pnjzx1TYRI0ZUypQpFTduXKf2+/PPP3X//n1ft4sQIYISJUqkpEmTOj3WtWvXdOPGDT+3ixMnjlKnTi2OG9jx6NEj/fXXX3r+/Lmvh4oSJYpSpUqlmDFj+nk6Dw8PXbp0SY8fP/bTrilSpFC8ePECe+mv979165auXr3q5/FixIihNGnSKHLkyEF2XvtA4ccCzBne5wu+v+jRoweJEZ49e6YLFy4oc+bMQXI8+yBeFrABgv0m+MsCDx8+1KJFizRs2DD9/fffvu6LI6levboaNGigcuXK+bjdixcv9OWXX2rw4ME6ceKEn07xf//7n+rWratmzZr5ut3333+vUaNGaefOnfJrkdLs2bOrVq1a6tu3r7/u3fvGAIMRI0Zo6dKlevDgga/HwpnXrFlTkydPVrRo0XzcDoA0adIkzZs3zwAO3wb7f/TRRxo5cqQyZswYqOtn559//llDhw7Vxo0b/bQZ4KB27drmvPawLeBfC3h6emrTpk26efOmSpcubXb/+uuv1bhxY1+/Cf+cg6CgaNGi+v333/2zm8vbEgCER3BsAwSXXxF7QywwY8YMdevWTdlSxFfzCoV8Ncrlm/c0cc1OFSzyvn744QdFihTpP9vilBo2bCiPp481YUBL+RbQP3j0RONmrdbzl5G0Z88eHx3jyZMnjRP+9ddfNWNEe0WJ/N/zcQHPn7/QrCVf68jxs1q7dq2qVKkS4Ac7duxY9ezZUx06faIsmVP7eBzWUj906JQWfL5RH3zwgbZt2+bjdkePHlWBAgX0UaX3VLJkfl+v6dKl65o6ZZVSpUrrJ6hy5abu3r1r7n/79u0aOHCgokaN6iuQ27x5s3bs2KHhw4erT58+rhze3sa2wL8sMGvWLOPAAcoMAH2JEiUEwxbYAQDJlSuXjh8/HthD+bg/wQmBgH9G586dNXHiRP/sEuq2tQFCqHskofuCBg0aZCL+B+uHOr3QmsMW67erj7VixQoVKVLkP9t//vnnatq0qZ5f+Nbpseav/E5t+043DgqA4n0AQohMft8+T1kypPLzeOf+vKq3izVV2XLlTBQT0EGa4t0CGTVtRjfFjRvLz8M0bTJcq1dt8zVKZzJZt26Flq4Yohw5Mvh5rIH9P9OkiSv8jPhduSfSGdwDoO/DDz/0c5enT5+qWrVqgvU5c+aMK4e3t7Et8B+A8Ntvv2nChAkiJUDQQIrhyJEj5p06fPiwSa/BUvGewW7BqnXs2FHvvfeerly5Yhwu2zAHJUyYUKTHeH8Zc+fO1fnz583vR48eLYIGwAjblS9fXp06dTLbVaxY0fxNSu/YsWPmWHXq1DHv98yZM5U+fXqz/fTp00U6D3avdevWBiDky5dPq1atUrZs2bR//34TICxcuFDp0qVTpUqVzLWwD9fPMb/44gvDoMaPHz9Mvg02QAiTj819F+0fgNB04mrtOXNLy5cvNx+49+EfgLB600416DDGfMy9e/f2FSCc27tYaVIm8dNA127eUdqC9VS2bOAAQvLkyVWiZC5NmNhRsWLHCDRA2PTNGi1ZOkjZsqUNUYDAc3j//fedvlQff/yxmdhtgODUVPYGPlgABgEGsF+/fgYMJEuWTMWKFTNMAnPEtGnTxDtGELB161bzb3Q7s2fPFvMOwAJHHStWLBMMrF692gDbX375xQCDUqVKGYYCoIDOCGaCtAZOO0GCBOaY6JhIMTIWL16sDBkymHefNBv6heLFi5v0KfvARnItXFvs2LENUFiwYIHWr19vtmcbUm+wC2wHoECT1KFDB5OG5fx8L2F52AAhLD89N1y7DRD+MboNENzwAtqnDLMWcEwxoNlBJ4Qjh/3Dsbdv317t2rUzGhuCgEOHDpl7Jf8PK9CmTRvj1BmAAdJjAwYMMCwCI0eOHPrmm28M61CjRg3DUKAbyJ07t9E5ENU7DphIAEemTJk0f/58wyZOnTr1NUAgXTFkyJDXAIFr/uqrr0xqku2//fZbc5383wIICDG5BxsghNnXNGxeOB9TUKjuA3v3NkCwAcKbxiCQarl8+bJxWDgVvjOcCY6DyDMoBjZDSAdF7Z+cO8p8KnO4Hq6NPLtvQteguM7gPIZ3DQL3hFOGJXAECKQAYBnGjx9vdDsImInU0SvheAEVTZo0MULjevXqGftQNQVAgCXgd7AA77zzju7cuWO0NVRTeQcI3bt3N2kF0p9LlizR9evXzTFhB0g1eGcQAAiwB2vWrDFpBbQ769atM6kLzmcxCKREHAFCaJm7A/JsbQYhIFYL4D68KOStyPvysYOK7927pzx58jg9Ii8cNL27y3hsgGADBHcABMowKbUMyvJOx4+uQoUKJue9cuVK4zCocEEVD80dFGPXrl3mWOS8yVH7Z/Tv399ExTggnGRYHLAAUPKkAlq0aGFuYcOGDYaOx+kC0qDq0Q6QdgA0oEUALGAvBMhjxowxuXyeD9E7Ylmqmkg54NiZm/g5ThutAs4fgAfbwPMl3cDca40DBw4IoXGrVq2MuBGtAOXUPXr0UP369fXdd98J8SOVUQAVQMPu3bsNi0H1EvtTqQX44H2B0SB1cvv2bXPtCDABOVw/Jd9hcdgAIQSfGgCBFw/FOC81+SpeOnJrPg1eTtAzyPjHH3804IB6el5OdynJbYBgAwTfAAL6kE8//fR1REjExsQa2EFpLRQu1LNPWpbAHp/9oaQpjwUg0OOD7xRWgciWSDJx4sQ6ffq0AQ1ly5Y1pyTqBFTgiPg5YB8Hhyiua9euZhtYg169ehlWAsdFtQoOA+eCw4JRIJ+O8I2qEvLhUNbY0mIMOSYOh1w8jtBx4HDHjRsn0l1E3Vwv1UGI/7guyogbNWpkHB1BBpQ7VP3BgwfNnIKD5tg4N1cClYDaGoDgUykzegCr8gDnTBmk1aeE50BUDxPA/TBfojeAgSlU6J8KKiqDKPlFdJglSxbDFHB/5P+xJywM+gGOi5jQcSB8xKnDzFjgAZvCPHAsninP6+zZsyaoQ1DJ8wHMwDBZpcbsYzFEvDcci79JOQRFOXJA7R7Y/WyAEFgL+nN/+gKApHlZyZ1BFwIWeIn5QE6dOmVyZnzIWbNmNduCgBn0HeBFBA3zIblj2ADBBgi+AQQEXtCvRHk4U7ZDDR7YwcQPqMaRlixZMrCH83F/CyAAvHHeOH8G5+b7xIHipBDGWUp7HCzfA1Es0TBlqgCDvXv3GkeNip6IH8eL6h2HTVMwvl2AFHnsMmXKGHCA2p789ttvv22cEVGoM4BAZQnbcx0cr3LlyibiZo4BSOH4L168aIIKbMe8wfVXrVrV7EckTzQOACKSxgb28NsCAEj+YMfwMGyAEMJPmY8XygpVLHkr8lWge5rQpE2b1kRJ+/btM4peKC/yZEQHfOCwDUxU0FWgU9TnRAtECUxqHJMPPziHDRBsgOAbQIBSBSBA6/I+4jABtbynNLoCNOAwiSaJ0IjYcbpEefyMaJGoEcqWiJx3nO2IuhGyEbUBQhCv4USJ6gsWLGhEZESU9GqgXDQgwwIIfJMo7XHe1sBR40y5VkRsfK98t0SUiOQAA6jjYQOI0kknkG8HNPC9AxSIPHHg3AsgASBC2RzfPfQ5+WzU/NjLez8KnxgEwAF5d44JQ4GYDhBCGgKxH38TbRM5Y0tYDZpw8VywHecFVGBL71F1QOznjn1gJHivAEiwrME9AIs8H/4GBBPQvenDBggh/ISZMIiGyLHh2KmVhU2gnpbJk0kPehHmgJwlAMHKoTFJOQIEJlUmJUACNB0lO7AOwTlsgGADBN8AArljel7wPvOuUgOOc6QUDXodCpz0GBE0dDF144BenD7vFXl26GOi2p9++sk4aRgD3mloctThOGO0CEmSJDERL84WR8fvABM4voAMxxQD3xWpETpa8k15Bwj8Hmoexbxliz/++EPvvvuucfrkwQFFfN90CgQUAI4cAQLfMY2noKlJPTIPAHAsRb7jPXgHCGyPoyIgIPcNW4DzhxIHGDAXcC3k1gFMCPxgKjkOgjoADuAFu/l0voDYL6T3gWnFZoCg/PnzG8bnrbfeCunLeOPPZwOEEH7EjikGogCrVtYRIDBZMnE6AgSYBahMR4DApfOB8KHw8TPh+tSxMChv0QYINkBwJcVAxEzumAGrhWPHWeIkydWS1+WdJk9MJEw0hoNn5M2b19DxgAsibRwfETJggWibdBwDoMFxWrZsaTQKgRGCWcwdAjSYO5w1jh59EAABZTygHuBOjhvHzDeHkwXQwPCRT0cBDxOAA8MGaAbYHkABxU+KEKYE1gSBG8AGxoD7AzD45LD55kgB4PyxIceGqeF8ABtYFGwFqMFRAqBIU2IbhHYMQAIsAvdD5E0PAuYTy+ZBOUeExLF4RtjZqjxp27atSak4W+8kJK7tTTqHDRBC8GlSJgNAgBUgyuLlRpkLGGCi4HdMlNCcRATkM/n4iYqYwIiimJBIRUBJkltkMoBeg5X45JNPgv1ubIBgAwRXUgyAXxw41DsCMAACThYQi1OCQWBSR72OAyZPzzYwA6QmcL7k5aHPiRB5v2HS+Hb4LgAKOFvocSLlwAAEKouI8r0PIlIEkrAUfGuAb3L6ABGcPQwH6UCuEaYBOh9Hj/O1un3i8KH8cd7sD2Dg2ye9MmfOHPO7nDlzGkeOvWBLHIWdbIfz9z4AUbAECBQJGqiOYCCgBJAgeASIYXsG/ya1yf9hKgEvCPkIUJhXwsqAveHdgI3yPgB3iEvtEXQWsAFC0NnS6ZGYWKFaUcYyWVi11gi5AAR8vIgTYQWo74UWhAokh0ieFTUsIMBq52kpmpmgoG6JxIJ7hBeAAA1LrTOAzLcR2hslobAnkvSt7t5qtRwUnRR5T4meYbMArTgocuJEx0Tb5OSJgqnEwbl36dLFpB4ABoULFzapCcRy/B9nxntGjTxRPM4XUIGgD8AB28axUYrDSNDsBvBhi+xkWAj+EElj4zdtANgARcydlBxSwQAooD0yg/SsPYLOAjZACDpbhviRaPtJdEPE5duKiUF9UeEFIMDukE8GqIVVgECEDnD0rXdAUAIEaH8mb2vAChBJw5rBFkBvAxqwK3l3ystocAMDYIm9iJRJOZBSABzzb+h0nAHHopoAx0cUT2QO+KGMjP+Tj4dGD+8Du6BBgGXkz5s8YEQQiZIOQv9ij6C3gA0Qgt6mIXZEyqOIqAL7ccBcEP0hFnO2qEh4AQiuPMTQziA4u4egBAjOzhUWfg/AgcIG3KD2R1iIw0VLQVqA31EDjyiQbSkpJM0Am0FpI3oJ2BiYEWhwmBO2Jy1CNI8OgegXehxGhf+TGoEBoTqCdCO9DgD7pCrYj/QHqUfYF75TgBgpR1gCwBasC6kXKkcAXYglYSHROHDtgCyYGNIQsDCkJTg33zopBthHjo2+g2sgjw9VD7jE+ZICgbGEtbEWTuL6qeJA78A1sz/XgL4BG2ALWE/OQ5UB14GmhNJAK/3B77EnNkZwCQDkmuhJAHvHfcOWcr/YFzDQvHlzw65yTdiHe6eXxLJly0zKhN9z/VzbZ599Zq6f/bAzf7g2tBu0R+bn6Ea4V35OJQTn4flxrYBZtCVcM8wsz59UF5U1pHNgxrhmUsB0b2QbrhUmi2cDyMVepJp4l2DWSJMRcHC9NL/CXqR3uGb+DbMMqAP0UjETGkaoBgiIcuwR/Baw+plTpgb9iziSnKtPIzwBBCYrcr1hlUFw9ubYAOEfC6EfwHHgnHG8TNQ4IH6OLoC0CY4LR4KjZhLHgVBBBL3NtuT2+b+lqmfyx1lQnjllyhTzbeEccCIAB1IipLHoS4AjwimTgiTlAvBgP6vDH2wWKUacKc6Yd5PrJG2J06c0lNQMjCIpJXQNXDtOGCoeXQNsDk6Qc1D9hOYD8MGxuWYCDsAKaR0ElDhZrplqDGh86v9x2oAY/kYkSNMlqlVgMUmDYgNWbCRVxHn4G2eL80c3hQ25Dr4r/k2lCD0fCEy4Bosx4toALXTQhGXCkaNfsZZ1xz4AEc7B73DcpJsoM+Xa6M5IepDfcQ84a66Na+Bvfs41o/3g/9gTBgowxbVyjdiQ7QGMMFdoUrAxZaLYGFCG/gugBUDgWtGKcSzSX6TNrGdIegx7ohGB8eAd4F0AZHLN1nLSzMW8K4DD0NBaP1QDhNBgIGeT7Jv2e7QRTBi+CR7DC0Ag0mGSZCIPqwCByI4JH/rdp2EDBGnw9G/12/5vNLB7cxOB45ztETYsQNQNAwMYgKl4EwagD4AFEIUpQn/jzhHqAQJUHb2x7RF8FiACYnKEWgPV+jXCC0BwxdqhPcVA5EZk6RvQDmqAQLQKvR3ax4sXL3XqwnU1G7Ba0aNEUMmcUVS/RpkgW5gptN9/QK8P0EzUH1oGVS7Q8zAcrixXHtDr5vsJ6feaVAiMCMyVOxfnsgFCQN+aN2g/8mTQcI79zX27PRsg/GOZ0A4QnL2iQQ0QyGeT2w3swBEFZ0XOsk2HtXzTYWVJl0hXDi83Qk5ElPbw3QJUC9B1kQZW6BpCw6DMlRQL6ZKgWnXTp/vi2KQGSC0Fd6dax/Njc8pcYQLdNWyA4C7Lh9HzhheAwCSIEArxpm8jtAMEcsLWGgI+3UNQAwSchysg09mrT1tla/0RZ9v69/eAj50HTytq5IjatHaRGjZsYFqZ28N3C5CvH9C/v7KmS64mNcsrRvRo4cpcf125rgET56tgoUJmlciQ7NjIN0XaAUGlO4YNENxh9TB8Tv8AhCIdp+mOZ1QjbvIpt4tiuGnTpnpyZqMiR47kp1UGTVisMTNXmQjVp377OBU+om+WjFDpovn8PNau/b/pw9o9VK5ceSNK8m0QoVj11T5tg3gqdZp4WrJ0kBIliufrcZ4/91TTJsO1bq2X8tynwT0tWDBXX64bqXff9Xs9jYH9P9OkiSt8PZZ1fERa5Gl9q0yxAAKKamcNZkhBIeaCavWtURJiLQRzCLxQriMo4/9EYJyLdAeqc4RdiOWs8kQoXAR1iPBQ/qPmho1wXJo3KD4Zmjd5PPWQIngdjeoEomJ7+G0BxJhPH9zRse/nK0rkyKFCPBeSz4yU1JOnHoqds7ypQqFaIqQGgkeqI5x9n8F1PTZACC7LvqHHtQBC1CiRlCu97+vaX7/zQH/euGscLPk0n6oBLICAqd7NndXXiefh4yc6ff6yIkaMZNTItNb1PiyAYCb+HJl8zRmSQz194bLu3X9kcnyooAM6uCfKq1KnTqqkyRL4ephbN+/p/Pkr5ve+AQTKyCgZixs3ljJn+WfNeu8HffjwiU6e8Go17NuxXL0fCyCwPVGRbw2VOA8AgU5/OHGfAAKlXLAtLDIGi0ApHJUwlKQBFCjzQ+WN+NUq6eNZoIhH9wKIQYmOQJbtfOqU5+p9ed/uwuXbmrV8j/o0/cALHESQORcLQwVn7jqg1xua9rPaRS+f0FNFC+YOTZcW4tfSbcRMPYiUwHS6DSldAKWpvKukUXz7PoPTEOEGIBDdMIhWcFr+WYkLB4dYxHHpWiY3yntQutPAxb/Duh7H/eitHhS9xCkbogyISZkyKUqHgmqdBgsgUIaDg/FtUCfM5MIL7gwg4Fgoa/JtkI9GAIczdwYQiECJ/P1ynlDKHAebBBYgcJ/kJbk+3waNiig1o52vXwCBcidKrPzKvzMx4XBZcTCoAAILK1HX79fxcPa879Rn+8YgUB7LksWUq1GiDGsE8KD3P2JjSu34Gb/jG6SOHIYjOAGC53NP3bj1QMdOX9W7OVIqwiuAQJtjgArlifbw3QK8t5Rr/rx2mlKnSBKuTTVp/modOHPbvLNBMU+7Ykyr7wLlkCEFShyvK9wABBpyQOOifCVyReHNBOHKwMHyQkB58sDoxc5kSoMMIpCANLWgFpbzE0HhQOiKSIMVqNfADpwVFQlM1tRNQ9/SvS4oykYtgABd65dYyVoBD0fmDCBwvdSV+zVIBbBQjTOAAB3nDPzx7EkP8NEFFiDQzW/8+PF+ThiUjlL3jCbAL4BAu2IiaJqs+DawKw1XoDqDCiBQ9+6sTIzohbpx0gfOAAJpBZgEnwACdDX14CwkBEDAdtgFBgHACVgIKgbhucdzPXn8VC9epXUiRHyV3okgcx+AIq7BHjZAcOUdcAdAINih5JF0YUiBknAJEGggYjXIICeKI2YyoqMXVCOMADWnTOZEvbSBxXEzgeBQrJUXoUiZ4GikwoTGREdelqgd8MByzezD8ZhI6XTIsbwvw8xDRz3N5Mj14MQtoMH5WXOcn1mCmMePH5vr5Hxsz/Ghfa1GLtYqjjQeYV+arrAcLddNq1smYK4Rp87xuTdLnMV1sw9KbpgSv6gsCyA4OicWrKFrGgAKEGY5aJqwEIE4AwjeHR2RKsDGsZc8jWQ4njOAQF7bseUuOTyO56gE5nkQEQcVQKDTHL0GOC73Tx0zwIFImbw7g0YovG/OAAIlWzASPFdqvAGSPBfYBZ49g/w8EXlQAQSaxbBGAgCM5jQ0a4HFYC0HRI6UkpEDpemNbwCB74ueCzBXNBsCxNBxkC6fqLH5OawBIIMGN9iH54RdeHdQiHM+utTxrGkWExBl+rNnnvrj4g11Gb1BCwdXV4zoUV5rDhwBAva0lmZ2xTmE120CwiD8dfW6kiSMr2hRo/zHbA8ePtbXW/eqdqWSr3/36MlTbdy6V2WKFlC8OF5s7O+nLyhj2pS6ffe+kifxqjDhfT/311U9ePhIud/K9Hr/q9dvGeGktW9wPSt3AARYR+YvvkHfWqYH1/1y3HDDIDgCBJym1fKSyYiJC6TGz1kpjgmMSBRnSbMKJmNAABMfLTOhxPk3Tpi8MZEIURhRMJ22UGAzETIJ4jzYH6aA/K01AAh0bsMJEBUCDoi4uE4WHKGshv1gFljhjhaj0KEcH1EZtC3pA4ADzoTrhjEAKLCcLJMu7Ur5wPmb1SIBNvwOYECHMBwWuXvulSgep0xLUr/aLXsHCJwfxwXo4Fw4RSZeRkABAt3nyGlzT9YIKEDguQIq+GON4AIIACXeJdqyIr4E9dNBLSAAgefLO4fjJm3CcS1xVHAABK7TYml4r61Fbyh/pcMewy+AgPgQjQLAm/cS5w4AAKABeHimAG3YBdgb0hBUFMA08K1YjWHYh28GIO7f6P7+w6da9d1RLdnwi+pXyKtqJbMrYsQIPgIEWAred+7JHr5bwL8AATFf+0GT1bp+FeXL8V8m7MKlq8r2YUM9OfH965NeuPS3Pu0xSvPH9lbalEl14sxF9Rn7mWaP6KrvdxxQlTJFFStmdBMULVm3We0GTtHX80aqWCGvZ7d1zy9KnDDev0BDcDxTdwAEAh5YWPyVzSB4e6o4zqBqlITjxbnjKIn2aKPJZAQqIyrC0TEZE8UAAGAb2AZ9AY2acNLk3aHuifIYOAEiUz4i0hD0E9i1a5cBCxyDCQ4HRbkc52LidQQITMI4baI1roEoiheCnzNJIoYheoQ5oF847ATOHPaCyA6nCYhhguX37EM0yMRrpRhgEbg+Ijp6p+McuR/0DoAO8vA4daJ/9BRs71cqwjtAAJQQeaJa5wPmJQZohUeA4Pj6kuMGEFrlev5lELAlz4F3g/a9sDzBDRA4DwxUp06dzGqKCCdZMZSWsc4AgrMJ2dIgkGIIrtF84GpdvX5f7WsVUaGcqV/rDayqBUcGgcoaumQ6awwWXNcaVo7rX4Bw8NeTatt/kqJEiaRdq6b96zbvP3hkqpUS5K30GiDACpz984oGTZyv4d2bG4CwYcse9R03V98tHKt5KzepV+u6ihzJq8rp1p17OnTsDw2fvkSLJ/RRquRJ9PjJUz16/ESJEsQzLAMsRfToUU3FBePu/YeGXfB49lwRTdOjSObfjKhRIuvazTtKmii+00fiDoAAqIYpRhBtixSDGSBYKQarfIpIh1Iny6FBO2/ZssVEQkySMALUoULvQBU7AgQm72bNmhkAQz4YR87vOebcuXMNcOB4RCqABRgCfu8IEBxTDPwcJoJzczwoVmpuof5x5OgVSFfgOGAJAAUgS14aFifhZ0RhABwG/d2ZAAEMfOSwDkyKvGwAGVIXCCUBGUR3XBvbAzT8Gt4BAiAGuhaAxEBIE94BAmwKzhbnanVg8y9AcHwG6CTQugBSGcHFIHDNDNgxHDl6Hd5B3pvAAATAI2sOMHwqUXU6M7uwAaVom7YcV6qkcZUxNZT0Sz8BAt8aqTfLpi6cIlxu4l+AQGogTqyYKlmvi/avm6n4cb3afO88eFTHT51X0sQJVKfDUAMQFn35ndKlTqaoUaLoo6a9dWjjXAMQbty+q2K1Oipv9syaM6KryjbuoZxZM2j6kE66e++BokWNqjnLNujeg0fq07a+YT8BCNGiRVW5Rj30w5LxqtSsj2YP76JVm37Udzv3K1OaVDp++rzuP3ykamU/MCDht5NnzbxJCiN6tGga3q2pn8/YHQCBwID5n4CQYDCkR6hNMUCF4xCDkkHX/Ce0AAAgAElEQVRgkiaKhuJkWMvIkucleqc8i+ifKB3gQGSMuIxFSQAIpASIzImocNzQ8aQYeIBE3gAJHCUgA4ABlQ9AgBFA7c7+1oDih1nAQQMu2I/oDRbDAgj8zXkAF6QCcN6kE1C6oyzm+ipUqGBeHhw1DAV/SE/ABkAZW924uAZyWaQoAAhQwdD4CC3p1gVbQr7YMQ3i08voHSDgvFiwhRcZfQPsTHgHCNgdUahj17WAAgQiXFIWLAJjjeAGCGgz+A54zwGU/DswACE4JzX0h57PPPXo7lO91CsRYkTO6DdAgAW0FvoJzusL68f2L0AoVb+r2tSvrMFTFip75vRaNqW/MUHKwjV0ed9q8+/ob5XR1f1r1KzXWC0c19tE/S36jNeoni0UOVJEwxrcufdAG7ft0/Zlk/TF+s3q2qyW2RcGAYAAK9C891h9UDCPOjSuZgDCkKmL9FamtGpdr7J2HfhVtTsO0Ya5IzR61jItnzLA7N+k+2hN6NfGMAikMQZ3aqI79x/oi3U/aET3Zn6yp+4ACCwMxRxNpVFAquUC+/6FWoBAAxNqP4MKIAACyOGTc6RawBpE4WgOyPEiUmRi56NAaAZgwJHygHiJqZsnygJMkKfHEeDQyafycx4m25BaYGIlL0tulyVYcZ5E9dbCOSjWETFyPUSZ5ENx0ORsSYcgFiNdATjg54AO2AFywtgFMAEogdJHAEnEh81gLwAIOGxSIAARtiWaJR3AIN3BPQJ2SF9Qjsj5AQ8AI4CPb8M7QCASQ4NAcxuABjlli5IOqxoEq6kPjtmvAe1n6Uys50oJFKANhgaBEb9nBAQgYEveLZ4tYI5jwdA4AwiwUAxn1RxWHwRYJkuDwH6AEVJusE5oYHgvQiNA+HLzrzr/5y01q1QABdtrrYFcAAjYiD/excOBnVDftP39AxAWrflemdKmMILBZ889VafjUOPgYQW8A4TDG+eqcfeR+mHJBOOUW/WdoOHdmqnr8BmqWKKwGlYro7KNuitBvLga2b25MqVL+S+AgCbhzIVLKlS1jdo1qqr2Dauq/Ke9VP6DghrcuYkJ/pK+W9WwCdMWrdXcUV7srQUQnnt6qu+4eRrQvqEBCEvWbtaIHs1NCsK34Q6AgB9CyA4LbQmeQ/IdC7UAISSNEJ7PBYggfQFIIX1Bp0JLoOaTXXyqYgBgINCDScGpWbmygAIEgA+pGqoYLD0EQjlSRP6tYgC0wcRAlVt1xM5EigA69B7OVPTeAQJskmNrZlI2AdUgwCwRNVilpNwD/8cezgAC4JBBOa5fwztA4JycD62ONWCWmKRCHUB4KT2891QzV+5Vs48L/JNO4EJdAAgAacAPINwevlvAVYBARF6oamv9/NXs1308GnQeoZTJEmlkj+ZKUaiGpg/pqIoliyhBno907+hGNes9VgM7Nla82LHUcchUAxDeq9FOn9Ysb3QH5/+8qgJVWmnltIF6L19Ordi4TZVLva/IkSMqScIERoAKEHivejtt/HykLl6+pnqdhunnDXO0/8jv2nXwV5X7oKAmL/hS88f0Mt9Okx6jNLZ3a7Nf77GfaWCHRgYgLF7zvcb0aqVIkczL4+NwB0AAxDKHUYYMCx3SwwYIIW3xUHY+StrQWsBkwCY462BnAQRYCTQWvg0YF5wjTgh2BWbG+7A6KQIunPXwB7Sg65g3b55hQ7wPmBKYE0SfAAm/BikjonzSNBzP+3AVIHB/pFMAAgAK3wYRONUwMFFMTD4NmAd6AsAswRD5NnhWaE4QQfpW5ugqQIDl4rmQunL23KmqoFEYoAkg6K7h6flCERRBj+566PlTz1edER3SCS4CBBgzgCJsoD0CDxBWb/pRm378yUTk6VMnl4fHc/UaM1toQ3q0rG2cc/eRs5QrW0Yd++O8OjSqphgxomnsnOVKkyKJ4sWJreKF8yph/LgaMOFzc0GkDp57vjApB+L6Sf3bmSoGyijZHz0D4+/rtxQzZgzFiRVDC1Z/q+s3bytWzBhqVb+yqYJYtmGLureorcQJ4mn64nXKnzOrMqRJoemL16pBlTK6fe+Btv90WD1a1H5dUumTRdwBEPhGYYZhpgPSbyew77YNEAJrwTdgfxwN7IErS5qSu0VNTz99vyJUHCEpGChynLdPx4Z5IFrFyVL+5tdAg8ExqJP3yRkz2aMXIeIBKPg1oOsBQxyLao6AAgQWsQFk4DitFINP5wUgAIKoJPFt6XLSEaR36MvhV3kfAIGyVboSWqkc7+d0FSBwLESD3Ae6A78GoInnxXMoUaKEW976S3/f1ZQlu/VpxXeVLJ6X+M2rdbL/AQK0LYwJf+wReIAQHmzoDoDA3EGTP9LMNoPgw1uG8wqKDoDh4QUOiXvkeaxfv97oKZwNImx0GH6V59Bi2Scn7f3YiCeJYv06Fo2gACQ4f78GzpxtfIv6qUJwZR12bIE4lLSCs66S9LsAHFgNrbxfH8cijdKqVSvT0MqvAaiipNW3fhXoQhiuiJoor0XQCqvi12ByQquAQNYd4+Bvf6n/1O/k4eGpVcPqefU3CARAABADYt1ROuYO+wX0nK6mGAJ6/LC0nzsAAho5mFOCAWeaouCwZahiEKhcINKi/I4JCwEe/d1xDiAo/k9deHCuFR8cRg5vxyQyReSGAwsMuKN8CQAR0jQwDhaH6A7nge2sapaAvjdWFUlgerdTmsizc9RhQMszSfH9AbB8ShsF9Jr92m/TzhOasni3Cr6VRp1r/c+wBq+1ZAFkEEjlAF5nzpwZHJf8xhwTwTTpuLZ1yhmaPjyPCk16Kleh4kYD5ArbGhS2ogoOdhGGL1ynGCjnogSRj9anAZULhUyumsmbySswzicoHp59jP9agO6HlHjyARHlEhH7pVXwzYZE1FSXoHlwFt0G9XNwVYOADoD0Ak6GUk+o/4IFCwZ4mWIiWkpRAcj0IAjo8J5ioIQW4I3QCRFpjRo1TBtk3wbADMaD3guWyJJro+8HYknYFXp4OAoyA3qtruw39fPdSpM0vgpnT6to0SIFCUDARuR3YZzs4bcF0PRs27JZI3u0UM3yxRQ9WsiL5dz5jC7/fUNTF63VFxu2m6ZyjiXHwX1dVLox/1G+7gojGNTXEyoYBEABAIB8CyrSRo0rqEu3Orp375H69Jqp7dt+MWAA1TgthMl/AxJwQjZICOpXIuDHAwyQQ0eQB5WOLoDyPp5vQPJniHOosghpUZyrAIFUAOkKa8VCon+cZ2CiC0AHwIi1CwI6vAMENCCUoJLigLKErvRrRTrAGduiNSB6tAZCVoSW9O2gH0dwl1298HypBzc89OyxpyKAC6ANIniVMwaWQUCcivYC29jDbwvwrBEGH9i/X3HjxPSzFPBNtOXz5566dfee+vTpazQ7AZnLAmoX+uCQvqQnkDuYc7cDBCZV+kyzoE+OnBm1es0IpUz5b0U4AKFVi9G6cuWm6c9vrRcAovItpxvQB2LvFzAL0FwKYEA3R8cPCH0BaxLQW5+Oi0SlAEH6OZDrh0IDIRPJ0R3ScV9EhByTMky249/Q/9DfUMQ4ZoR9vAP8n7bZgApASWDob98AAgwBlLv31RbphYGQiCib8+OgAUp0qOQa6RNBJEAfA6JWel0QpdNjw1qMy7I6pXcIAYkYuGeaYKETIO2Ak2cfK+WCk+P/tOemp4UlGvUJIAA6aJ0M2EI3QZkffUG4bq4fMIBdESJy/7AYnBuGhH2pRmF/BJ6kXuj0yRoR0J84EJ4B+1LayneJ42Uf+ovQa8A/HQvP/nlTR09eVYnsmeT5/KVXp+RXyzQHFUAAvJLSJNiwh2sW4BtHk2ClsJztxTtOyTLvhiPQdLZfcPye5w1LzaJj/s3l8+7yHbjD1/CNwirC2IXLxZqosWbCix07ho4eW6JEieL5+H6sX7dTDesPNlEEEzVKb0Rm5FndgayC4yUOy8fEqeGYcWSOTp60EBoSnCROiciYn0F5Ux6IEyEybdmypUlJOIrgAAg4PqohAAc0imIftCg09qEskPcA6pwcHbQ8DozukTTGCuhg/QyAgPcPknePciPArOM7ZwEEzscHTbRFHweoSMoH6dzJBAVAANzS/IscPpS9d0AFQKAslK6c7du3N8CH+wEs4HzptYC2gyoGbAXjwDFII7AtA60Aw6qGwFljd9JztBemjJJ9AWm0QOY6YQYoOwVkMJmzRgerMwJsyH1SuWIxCDhWhI3cK0CBZ065LPcG2CfagYGgAyPdJJmYAXIujZfSyvVHdff+E1Uvmsv0NAgOgMD7yj0z8dojeCzA3E56AhCKnVkHxx0DAMt10GyOd555JjD6nJC8B75l7Ej783CnQYDKZOIhEuo/oIm69ajnq+1v3LijJo2GacePh83kSSkbEy/d7uxUQ0i+sj6fi8gUgEBE6QgQcDTku3HilPkxKVvRNas+Wp0iaQjCh8CzJUKhHTSljzhFjo1zIyIn30/UzQfDGgE4TxgGED6gAHU6OgBrTYqAWAZKj2jBO/B0BSBwPqJSgAwfNxMT9wm7wP1gD0tTQedOonJK7rh/ohucOg4fh45WgN+hw+Bd51shmgdA8DOaGFHZAavCsQAhDGzAsCIeAALnhMkhuqcFOPfCzwAeaH8AYZwfx8510huBZ4a2ggmeb8wCCNgF+7NOCQCDbxAgR5MtwBKrkgIUuA8r/eLKc3j54qUe3X6up/c95fnihSJRqRBMAAH2ioVwrLbrrlyfvY3rFuAd5H2B3WIA6lHj8z2H5OC7Iy1gpex4j9FIAWjDwrC64wLE/VplN7juxa0pBgACeUwo1CVLB6nSx//z9T7ZdvzYpRo6xGu9eSYwaGToIku0GFxGso/rmgWIiGniY1HgRKukDoi4SSs4AgTociJWJhIcF04Ip+XY+hYGAafFRwJAwOEQYcMc4TwBCDg4Im0YBQACEwKOjVx7QAcUPe+l994GrgIE6HlYBMoWic6JpLEJ+9PmGwcPMIJRwHmT07cGExlAyBEgWHZC44FTxnYsrmU5X4sVACwwSBUwrONyDuyB+toCPTAttFKm/TbgCoBA6SqAgMohgAIsBd0sETZiXyZ8QAXfm28AgW8SdoFUIHYkneE9JeP4XGikc+POQzXpu1KLe9b9p2OyoQ1eBhtAgLbl/aFk1x5BawG0OQQBFjiwjs43QCMzV8qag+KKmFsIHnwCA8xJfIuhXcNGmoY5jW/ZHdfqVoDAjTN50EpywaL+qlqtmK/vhYfHMw0eOE/Tpq42ExDRFPsScSEMs9MMQfFJBe4Y0NHQdzg+xDW81IA/nPzs2bPN4jhEmUTNOBDAHYACNgggwaRi0foAQpwkfxDUsQ/OCvqaqBVnxQQAcIAy5/90W7Q+KDQPAR2+aRC8AwSYBsAL6RGukesnQoGCt1pW49BxxjhnBo6XKB4ghB6Be7IGehzSJhyTe2Fi4z1neW9YCFgCQAtVIYAg0gGcFwoV1sKqTPCuQSD6gNnhXNbkTC6Z6yZlgROH8WAbC8zAwJBqAHwwyQJOSJeQLoCeRSMBcABY8O1BHwNaSCXAJAE2ABH8jhyuT5Ejz3jlt0e14tsjypU2pVpUKKzo0SP/k1IIRoDAvcJYca32CFoLkL6B2WN+5z0inWilFwCfMEwhMXh3SefxncIWwZQBCgDWfFMENIERFIfEPRAkEWgQXAW3KNin+3E7QIB2YvIsW66wVqwa6itKOn/+isqU6qi/r94yffUBB0yy0KXQV+4QkITECxLWzsHHiFgNR41DA8DhCMiR8ztoMj5WPkwEdjAH6BCgy72Lh4iIOQ6ggX0Qx7EPGgGcK7oGRHAMFjQiOuE9cFxFMSD2cxUgAFC4diImnD5aCxwi10wUD5jh3lnIygI+ACbui+v0npfHPmgTAArsS9rBshP3TAqBn1v3zN84dmyKra3hHSCgh+DY2Iv9rYGWB5AB3Y5duVb6TgDueG4cl0kJrQH3RG8LAAb/5hwwOYAT7ABzwH2xD1USABirGRGMCGyF43j89JnaDVunv68/UM2ieVW+YDZFihjx34xBMAIEmj7hyJh/7BE8FuB9oiyWcli+AXcOglACCarg0DOFlcG8B0tKAOSOvixuBQi8QORpWV2QSefEqeVK4a2CgQcJDbls6fdq02qsMRKaBaISi0GwGiiFlYduX2fQWgDNAop7otmgAIqOAAE9Aw6Uwc8BAjha2ARYDyoz3PHh4sSp+iBC8x4FudpqOWifwj9HA2ywGik6EhgUgMy/+i68lJ57vFDJZnO0pEc9xYoR1at8keGoOQhGgMA7gw2drdgZXDYKD8e1AULgnzLsCyAL5s4xFRn4I7t2BLcDBCIqRCPkWRnz5vfR+//LoxQpEpmI5sTvF/Tjj4fUs/t0MxFCC9FVkQgHQZRdyeDag36TtyIvTrRKdBsUojNAK1Q+YODkyZOGkfBpYSSaCaGFcccgKkecCGuBQ3YcFqBxh6jJug7AFDlogAEpQAOwLtxQ5tSJ9Oimp57c9TR6g9c9DUIYICCWRdPi18ql3p8r7wDsjj1ctwDzOulFgKL3gZYlKAA97BgBpl+DjpAIhEmnhWSjI1cs5ZcdYOjQbzG3uSMd4naAAJInt0nulREtWlS9804WJUmawEzKZ89c0okTXkpYJhvy2alTpzZRHM4ACtSuYnDlNbS3cdUCOAHeKf7wb5ZZpqmO4+CjBty6gz1wdh9MmHw7IdnQxdk1PXrsoZ4Tv9En/8urt5OmeN3wyF0AAV0I1THoMJwNbImjo0wO1sEerlsAPQ5/fBIm8u0AEIiQSRX7d5AiQldA6suq3PHtGPgZ8vn4DP/2QfDvdfl3e+yAT0NsjTbCcZDeQ39EMBLu+iAQ6ZAq4OFaAjWrltu7kfmQEaQR2QEO+MNLZQsU/fs62ts7s4B3DQJCSTo6OrII5Oq9NzlydtyQ+r27Uwze7/PlC+n+lee6fvWR4saIpgiUL77qiOgugIBOAiW7bytiOt4DwlKi4LzvZFPp0oVNt1d7BNYCL3X82Fl9/fVO5cmT11DozOmuDhg0KoVg0Vq2qq6ECX3un+Pq8dy53enTF7Vq5Q8mFYd41nFYQN8dPRC4DrcwCHTkQllNX2urKxf5SpTRULqUHqHkRvCFkAtxCToDKF/yMLxINLIhfwgCDWz5Bw/BcfK3jhfY47rzpbPPHXALeAcIRCio8hG2MWj5TamhX0s8B/zsgd8zNAAEuiHuO3pRJfNmUeS7UVETeKUTXv3tboDAHEQKhMDEr4EwNEuWzOrStYEGDXbONgT+6YWvIzx9+kxvZa2qrl17mhJbV+dcQNvBn3do/VcTFTdurDBvtG1bD6h5s6GaNWueqbSwBn4Q8TWVRO5IGboFIFBeROUC9eDWoL6dZiuov1GFwy5Y1BFAAaYAigVgAEUEooKacfWF8ukNIg9JBEE5jgUQKMEhjQG9bK8cGea/uwDdgE9VDF9++aXpvcA7QfdCejcE5t0L0IW5uJM7AcLpize0+vtf9cvxS0oRJ746VSqu2EaEGLoAAgwQVRfOli0ntdCtW1edObdBCRPGdfEJ2Jv5xwLdu01S5EjJTfMvV9NisMcjR7XVp00r++dUoXZbhPi1avbUmTPX/9XkDYaESgb0dkGh1/CvAdwCELhI2uJSl41zZqxevdq0sYVRoH6VP+R/+T0TMYAABgGgwL8D47zJ0SKMRIFOHtlxcGw6yUEpQvlYApLQ6gz8+8Dt7Z1bgJQX75fjM+c9pP6fFsW8q+7IBzq/cq8trG8qpHuD/HT0onpM2CTPZy80o2UtJYgTU9GjeK2+GNoAAqW45HcJBvwalFQPGzZUt+7Yizq5+v75d7sJ45fo7JnHpieHJWh1dgy0Z5OndH9jAAL3+0nNntqz+zchqLQG4k7YdgLocFPFQH03zY5QEeOoEf/QWIbGLExu/EGVykRNZM9EDXoKiqgeVSjNOugulyFtcqVMlkhN65RT3FgxtWTNFp0+f1m/nfTqxc8qhCjYeWkDy1Y4e+FD++8BVZbjCe3XGlzXx5oDtHpGMBSeB98h3+OV6/f0+NFzpUmcQB4PXurWnx7yfOGpmNG9lgM2Ky46aA1CU4oB/QF6J2erZtoAIfjfdBsgeNnYJ4BAAAujTs+fcFPFACiAQahTp45RaEKJcvNWExdLE+BdFwBQCGwkP2TIENOVKk/2jJo7toveyZn5X1/A5as31ajzWG3bc9jkJ8n/kNIgYgyP1RJ0LbT6/TsrJQr+qcT9Z4DhCisLvQSHtfj+uH/+RIqWSW9lKKzSud76hyGwAEEoBwhEZjSKQjke2hiEPbuP6Lvv9qpZ86pKkybZ68s7c/ovrVq1WcWK51eRIrl9vew//rio5cu+U9q0ydWocaV/bTdr5mo99/RUrVpllCRJgv8cY/bsL5U/39t6t0D24Hh9fDxmcAKEa9dua9XKzbp+/fZ/NCTffbtXv/zyu2rVLquMGVP5eG34oN27jmjLDz+pbftaSpw4/uvtTpw4r3Vrt6l48fwq7MPzOHv2ktav264aNT5UmrTOqzR8AgiIFqmgoiOkO1jLEE8xsNgMXdZwuiB4KhNCapBbhrk4dfKEtq4cq0LvvOXjqa9ev6ViNbrpyrU7RitB5y2EkeGpIRNsAU2CEI1aaZiQpqxD6r2wz+M/C1hMUoJ4iVSn8qca0HFEmAMItAWna2WpUqVCHUC4feueMqT/SHXrldeMmb1fX9+okfPFn3MXvlaCBP/VQ/Bc9uw+qnfyZVOvnlP0++/ntGbtOMWNG9sc4+DB31W/bl9Nm9FLRYu+o2jRovzn3pct/VaPHj1R02ZV/PdSBGLr4AQIiCAXLvhK3bpO0q+/rVS69F6VEtev3VbLlsNVrFh+NW9RVTFjRv/PHezc+YuKFs2nWzfvKkf2Gqr0cTHN+azf6+247iGDP9O5Cxt8fB7YsX270WrRopoKFc7l1EI+AQQCEv7gf9wx/4YoQIAqoSUuHyetV0N6RS3abNITPHas6Lr565d+PrBStXtq+94jRheBYpZWtuSAwsPCUAhjWI1vw1cbVK18HU0cMEdRonjRxvawLYAF7ty9rfKNiujcn2c0vv9s1av66aumRy9flSqE7hQDwQLzEOtF+DXclWKo/Ukv3X/wSLPn9FPq1El19epN7d59WL17TdWpP9YJx/fw4SNFjRrFOPQ4cWJpyOA5phSzcuXiGjtmgS5dum7+36pVDZMeXLRoo3r3nKrtOz4zEfOVKzcMy3Dv3gNzjGTJEuuHzft08eLVNwYg8GyJ8v/665p27TqsZctHGBZ6//5jqlunj0aMaKdPapXW7dv3FDVKFN26fVeJSZl5PFOmDB/rzNmvFCduLPXuOUVHjv6hhYuGKFmyhOZ5cNwpk5fp2O+rdefOfT1/7mkYBlYejhkjumLFjqFOHcepTp2yAQYIdEpFFE3FH2nvkB4hBhDIYQMI6H1OXp8ysZAu22BxGSjF9/Jn1441E/y09ZwvNqpNn6lGF8E+qEhBcUHVdwF9BXoIxDZ+IUM+bNYdoGd+YNMrrr5crPDHYkfNa3dQvw4jXN3N3i6cWeDp0ydq3K2GTp45poMbzyhiJISdYQMgwGSSYmCxsNAKEN7OnkFp06ZQ4yaVdPToH/rl5xMaPWq+Tpxaq6837DSOPXOWNFq0cKO6dq2vhg0HqHTpQvq0aRXN/3yd6dkwb956TZjYRXfvPtChX04aBuLzBYOUJEl8Va/WXVu3zdamTbv19YYdmja9p7ZuOfBGAoTKVYrro4odNWp0B+XKlVmTJy3TpUvX9O672VW1WgljF1I3m7/fp/TpUypnzkwqX669Nn4zVfnzv6X+fWcoWvSoSpMmuWEcDh8+pb17jmjqlOX67fgqfT5vvc6du6yhw1pr4oQvzHMBqHXuOE61AwEQCKoRLdJW3dUKj6CchkIMINDFiv7s1BWTV7GWBA7Km3F2LGpJO3ToYMSJf+xc4OfmQyd/ocETFpsIg5XsaGlLFy4qKXwrNwHpsRpew4YNTd6I1e18W7mMXg8oqWEn/GqCQZtNa8GTkOjaByBBhDdm1Fgd/f5PxYwR9muMnb0Xrv4e23gHc14/s2T6rh7J5+0sQa6zo7i6nbPjBMXvV2xYpI6DmurQt+eVIlmqMAMQWFmUFCfruoRWgNCuQ20NHzpXK1ePVp/e09WpU11VrNDeAATYgdixYxhGwdPzhXHudWr3VvPm1VS2XBENHTJHnbs0UOdO49SvfzM9feph1rRp9ulgzZs/SNmypVOlih21YeNkHThwzDTqGTmq3RsLEKpULaE5s9coRoyoqvhRUf188Hdt23ZQefNmU42aHxpQdOHCFa1csVlRo0TWxMndlCRRSV2/udW8Hj27T1blqsXN81j8xXB16TxeXbs1MKWJx098qQ1f7TCgof+AZkb/ESNmtCABCDAICKNhv98IBsGqQnB0ovyMVpvQetworWvdMejWRUdGz+fPdOPX1eZF8Glwve+Uba3jf1xU+fLlTRc9AAJlj1ZzJp/2gxUBTACGDh48aHp+sxKXNWANYAFwMkQw1Naz0hmshOPvYFtYcwKBIIPfWfbEOSAWdAQLbG/9PrB5Ko5dunRpxYqYULNGLA621MKab5ep85AWypbxbcWLk0A3b19X20bdVL184Jff/evKRTXuWl2TBs1Vzqx5guRVO3h0rxp1qa5jP1x+XVnz68nDqt/xY62fu13pU2f8z3l27t+mT1qXNY4zUqTIKleskvq2H67o0bzWJnAcN25dU+22FTS46zi9/25xP695/Jyhypv9XX34v/JBcm+BOcien39Um74N1aJuB7Vp3DXMAAR6sbDKpbNlwd2ZYli+cpTathmlFi2ryfO5pxImiqdyZdoagPDVVzvMe1i4cC4N6DdDU6f3NJQ5wsZy5d4zAKH/gBYaN26x1q7ZqnhxY2vTt1P1v/ea/Bcg7GdJ4c0aOar9Gw0Qdu86rM6dxhs25R2ODN4AACAASURBVOQfa9Wn9zQDEKrX+FDjxy02wIoVRefNXecjQBg5ur26dpmoylWKmdTM48dPVbN6DwMQYGBgaPoPbB6kAMGqHiO9Hdi5PSDfeZAwCDhUnCM5PZb1pLEDlDj0OZUA1I1D5aE/4N/8zh2D8kpKHH/6aZ8Gd22ori1qKIo3kMACMj/s/EUNO43W02cvDQuQI0cOk2KgTzbd83xjEBwBAqWbAAuW6WVw34j+LOAAMqTUiqoKgBMggEkLQIIwEHGkZVMaStFlDPaFewBksExymTJlDAvBKoasU8HvmzRpEijTAhBYDCtFvPTGwUaJ/F8hU6BO8GrnBw/vq2GXqureYoCK5P9Ajx4/NCVycWIFTTOasbOHqHyJykEGEBzveef+rSqY9z1FjRJNA8Z3VdPa7XwECOyTplBMfTlniwrmKaLcZVLr49I1Naz7RB9NOGfpFOXImttHgHDotwPKnjW3okWNFhTmD7JjHDi8R637NVC9Kk3UuUW/MAMQqMzhO0Nj5NdwB0B49uy5Sn/Y2mgFVq74XrNnfakt22br4MHjphTu9Jn1hsZ+4flCyZIn0rJl3+mzuf00ZtRCxYsXW63b1NTAgbM1bXoP41Ty5qmtrzZMVIYMqVT0/aYaMLCFcYYfV+qkTz+tbPLzP/74iyZN7qrffj2tixf/NjR6SI3gFClyD1Rm1K1b3jAubVuPUvWaH6pkyQIGIND8qmGjSho8aLZJMaROnUzTp60w4tCM6SuZFMxbb2dQ008H64ulw7V82bdasuQbfb1xsnbtPKTGjQbqjzPrDSMxa9ZqNW5cSYcOndT9+4/Uu08T1avbV81bVFOJEu86NadPIsVTp06Z+Z2eQe5YeTTQAAGFOytkffHFF6JO3HFAx9OWFmfIzdGVjJy+O5AQ14XzIwXAql5JE8dXy/oV1a9DvX/1Vl/19Q71G7NAZy5cNtULOGxWjGRpaWeVDDh0qiT4g84id+7cprEOTZ9w3JRX9uzZ0zh2mjFZAIFGGJR8AhZKlChhgBSACgoUAABI4SVZvny5qaSgox8iT1bxo6MYx6ZnA6zD5s2bDTAL6AhJgNC4azV1bd7fAIRXC/tp8Zef6dxfZ/R2ppzatH2d+rQdpiwZ3hLOs8R7ZbVx6xp9VLKa0qfOpM9XTle2jDm0cetajekz3dxyr1Ht1aZBV+O0Rveepkxps4ro38PjqVZ/s1QdmvTUrCUTVbtSI329ZY1hLVImS63zf57RpM9HqlebITp38bSO/XFUDas31/Wb17Tv0E5d+fuSOc6o3tNMxFyrUkMVeud/+nzFdMWMEVs3bv2tIvk+UPUK/2ZAHAFCjlIp1bRWO3Vp7rUC5PjPhill0tTme+B4FkDIn6uwln+1QLneekefr5ihAZ1Gq9OgpqpUqoaSJUmuH/f9oNYNOitF0tT6fsdGpUiaUt9sW6+Ced9X1KjRNGfpZDWs3kJfrJ1nWIa6lQMHGv16l8IqQAC4024ZMBzaAAJit61b9qtM2SJGXAj9TV4cUeGvR/9QqdKFTL773NlLihwlsjyeeihf/reNUzp9+k/lzZtVlOAVKpTTiBi3bz+o4sXfNSmGPbsPK1myRMqSNa327//NiBPZxuPpM+XMldmAjkePn5jzhdQIboBw/PhZcz9UKvz222m9lS29IkWOrN9/P2tYgDx5spp1IbAFVQ6UiebL95Z27DikzJlTm3337DlqyhkBbzdv3lHy5Il16a9rOnbsjEqXKWx+fvDAccWMFV1RIkc2LEWR93Jr585Dypo1nZInT+TUnD4BhDCvQcDZ4ZSIanNmTacVs/oqQ5oUmrvsG3UYMON1C2OiZ5blxcG5q58AUTrtm4m26aJmjXhxYhrV6dXrt19fL469QYMG5npxwpkyZTILS1H/7ZtY0GIQRo4caVINly5dMtuiN2BCchREkWKwAAIdI2fMmGEYBMABqQkLIHAMdBOkRwBXLC+MlgOBFauZ0QmO3t2wEB988IFWrVpllsIO6AhJgFC9ZSkjdY8bO57ixY2vuaNXmMv+qElRrZ71vfYf3qMJnw1T3/YjdOHSOdWoUFcLVs1SulQZtH3fZlUsWc1E8oU/zqo2jbrp7MXThurG4VsMQsqkqbTrwHZ9XLqG0hWJo3ljV2j5VwsNeEiUIMlrM0HXDp3SW3U+bmwYohmLJmhY9wk6fPygCr9T1Jy/SJW3dPnAU5NzH9JlnOLGia+BE7rp01pt9fjJIy1cPVuDu4z7V5SfskA0lShSRqfOndCIHpNUumhFc84WvepozqhlBrSWqV9IW5f//Bog5H47n/qO6aTJg+YZBuKv/Y/VbVgrA14SJ0yqYVP6qPbHjRQ5chR9uekLdW7eV7fv3FS34a3NPm+VSKrNXxxQxrRZlKdsGp368YbktRrCq2FWRAiSEVYBAgHNypUrzbcZ2gBCkDyYMHSQ4AYIYcUUPgGE3bt3a8SIEVq7dq1bVqEMFINAFzJ60qdPk1zLpvdWgTz/Xpf+yrVb6jH8M63asEPpM2QwLANUPRFuUCyy5N8HTwqkcePG2rNnj/Lnz292pye7VeePShSdAcJCejXAetCvgZQIy3H6lV7gWKww1rp1a6NB6N27t6mzpkUm5yXVwsIbCE2gjcgtWRoE0h6sCQHDgNYBIEAzqW+++caADAsgUKJJ3whSFzR64Q8UKbXcFkBg0gvI0qmWLUMSIDgyCI7Pskrzklr32VadOX9SLfrU08cfVtfbWXOrzCvnyrZpCsfST+tPKGWyNCZ6nr9ypmEaLEbAAghHjv+sWDFiqcwHXg1jQPet+zbQzBFL/pM+mbtsmuLFia/sWXJp+LS+6tayv+avmqWpg+fryrVLyl8xo68A4anHE81dPk2DO4/9l7ATB79q1vf6dvt65ciaRzUrerX2fad8eu1ec+xVD2IpZoyYrwECzMT+w7t15vwp9RzZTpcPPvURIAA+v1j3uQZ0HKX7D+6pRa+66tysj6o0L6HD35xX0sQplLV4Em1ZekCICRkAjMY1W/n30/F1+7AKEGA1Dx8+bL4lvwbs3uDBg4xYzV7FMchem38daNSI+bpy5aXppuvqqoVvaqvl/T+dMH7DGqSU+f/778MOhnypeYABAosqEbGeP3dGc0Z3Uq2PfRZW/Xn5ugp+1F73Hz4xTg863CoXDMnWkaxJjiPet2+fiepJA+B4d+3aZcoIcdgI/6DtceK8qPxNd0eYA0oy/Wq3fPbsWbPYCCABhXSePHkMC4DD7dq1q4lWSANwXoSSpAtY74H1zEGIgBCiWFIKiBMRT9GLgMoJgAFqa4QqMA0IPqEeARJ0ouQ4/Bx2AcBAqiKgIyQBQqMu1dSthVeKgXHq3O/KmCazarQuawDC6fMn1bJ3PbVu0EXL1s/Xl7M3G0cdLVp01W5TQZ981EDN6rQzjMDV65d1/ebfqlCyisnhWwDh7r3bhobv32GEIkSMqGs3rqr/uC4+AgSEkvU6fKyyxSoZ2n73wR81pOt4JYiX0GWAMKjzWANIrOGVYvhBqZOnVel6BTW02wRVK1db5RoUMaxGm4Zd9eNPP6hYoVKvAULyJCk1Zf5owwakLhjjNYPQs80QJXnFIJCSIDUxfGpfje8/S5EiRtawaX3UpVlf5auQQYe+Oa9krwDCoU3ndO7P0+aSEEhmTv9vIB/Qd4X9wipAYKE2vlW+Wb8G8wWVTPPmD1CNGn43VQqMHcPzvoULNlT16vXVuXNnlxckIoArXjKHBg1q+R8dWVi0JRUUDer3V57chc3aC9bAr8AUw0iTsg/pEWCAgOiOaoSY0SLp7J6Ffj7YafPXqdOgWcbhIbaj6RAOFyccErX9iPdw/KwQaQ3y+JQ9IqgE7KATACRYC0PBFgAQ+EOawVmDJBwrDYZw8jxIwAQdsEhpcCyOy7lIUfB7fk5qAZaCfT08PMw52IeWmvRIwAFwHI5rHRO2w1qbguoHtiN1gi3Zl9+5okEAqJCO8K4HCSmAcOvODeWrmFE1ytVVtszZdfyPX/Ve/mKqXOYTlW/0npZO3qCN29Zq4arZ+mHpAVVvWdrQ9KX+V07De0zWixeeatCxsnq3G6bBE3to44JdOn3hlBp2rqJ8OQuZCDxTuqyGxm/es7aOnTqirBmza8X0b9Sqdz01qtlKJd8r85/vrUbL0lo8eb2x49hZQ9S/40izzfrNq9S6T31d2v9E3Ye31q6D2zVr+BKNmTVYQ7uPl8fTp+oxsp3mjPxCKZKlNvsgvMz8QUIDgro076d7D+7q/Wo5NKrXVH1Q8ENlL5VCsWLE1vh+swwoIZ2SL1dBFchdRO9Vza7KZT8xKZUmn7RW3NjxtWLDQgMatu/dbLQI6BmmzB+lOLHjKU2KdLpx67rqVmki0hqfj1utLOmzqWyDwjq1/YbLE69/J6CwChD4Vvj+nLWvBYijQUqVKonmzhugwkWcd8Tzrw3D6/bMlaU+bKVjv503rfedVZQ42gl9VpMmjTV4SEu1a187TJsQHUSrFsO1bt12/f333/9q5c47im+CwQ5TqzlSnkfjo9QpEuv8viV+PiCPZ88UM3MlI/gjGsZZE5XjOENCsAi1D/VP3t5a3wEBIlE5DwAny98WQMCJ43y5Pv62FokK02+ht4vHAXJ/qLQRTMJ48LOQAghvki3D872EVYBA+g5NFO+/s2GV/kL1Ihp704a7+moQECH+Llu2rEmv+mcwV/Ps6DeDON6VheSsuT8kglL/3At2ILVME0FYeceBVo7UPCyzMzDrn3O6um2AGAQMTfMeKO3kSeI7BQhnLlxRtg+aGPEdmgWrIsBaAMnViw3MdhcvXjT6Ah4EZYtE5ND71sqRTALW0tIgNcfVI0PbCxUYO1j7Ot4TmgWeC/oM2J2QKHMMinuwj+F+C4RVgMDEiyiY6iFXBkEEKQnH/DD7kZ5EQMy3447leF25dr+2gUkhJUkaBdo+JOc62FNE7qScAzrQkhw4cMAENn4NfBbpZIBhlSpVTMm5OwbXQIrY8V3BFyE8J53sfSBuZ9VjUvNhJsWAscnhoaCP+PKZTu74XDGi+16fXbZ+b23ZeUjVqlUzaQacdKpUqQx9H1I6hLp165oPmdw/iBXGwBLzkWIA7PAgGEGxaqQ7Xj7/nJMmMY4DJocPlWVFSX+kSpAxWPsg+Oda7W1DrwXCKkBAu4MuCL1QYAbiY74l5g+0RmFtINZG4IwYG9AEq/gmDgAEgSmiP9jrbdu2mb42ITlomUwgxqDyz5WBoB3tGvoMdzybADMI5Myp2d+3b68a1SyjacPaKXq0/6osT5+7pKLVuujR0+cGZaO4ByAgykOHEBIAgby9VZFA7opSQscBbUh/gu3bt7vyzN6IbZgUvA+AER8RL3KF4lVtgPBGPOngvYmwChBgBPgT0KZtzH/0J6GSyxqUohEJhmQUHtCnSxCAHoxKKsdBVRfB25s00KAxr1kpBu6NVv/o6ALDXvjHRgAUQCSdhBkI9ull46x9Ps8J7Ro+M0xpEKwyPSi6OLFjqGH10hrSrZHixf1HafnV93s1avpy7T98Uu+8845Z9IgafXoK8LezhYr88wD82pYHQ28CaBr6WqMxcBy8OAgBuafwMrzToTS0oiqCtSH4O7g7KbrLzj6tpxDS10LHSBibCPJ/P4IXL18oYoSIIX3Jvp4vrAIE9Ad0Ox09erS/bck7hMCXqM4qkeYgzGeUNTtbQtrfJwziHRA1k9fu27evcT6OAy0SDe1wqG/CgDFA90Y3Wu+DlvLo0IJ70UD8C+8ZOgJrcE4WD6Rpn1+AkmZe9Ndp1KiREcuH9AgQg8BF8pJB00PbN2/enH43ypM9k6JF/ac17+nzl3Xz9j1D6YC4UQODmIjmoeZAsICF4Bw4fXoH0FaVUkAMbQ+vNAoDsMTqjUwIaDR4ru7UIOz9ZYdyZXtHsWPFCfLHRFXBjEXj1a3lAH8f+9cTh0yXxjIffKSOn/Z6vf9Tj6emuuG9d4upXpWmihH9v+ssOJ7sx32btXD1HLNEMuWT/h30cBjWbcK/mjz59xhBuX1YBQioxYksA7Jo3C+//KKaNWuK0mm+IxwAYma+JWhryo7ROYXWAcBB2IcNmMMrVqxoRIII5IhS0SG5Y2Gg4LAXETh9aPib/D/3SXMsi67n+bvaeyGg1zdhwgSzAJ73AJQUN83ycubM6euhuXarzDHMpBi4G2vRIOh52gDTbpkXDtELLyBAgA+GaBREDXvAy2gNBIqg+ICKRTg/oMM7G+Dd0lA69LGmn4G1LkJAH/SbtB8vZ9u2bU1DJ8c0jzurGMziM5WzKWe2vJo3duVrc9PNMFWyNEqcKKlpikR74rw5nPc25wCUFtIsqWjBkoF+fG+XTK4CuQvrszHLFS1qdHO8yZ+PMj0X/vrpkUvHpw/DsKl91L/DSCVJFPCOly6dLAQ2CqsAgchx0aJFr3VHATUVQkc6sxLlEX2HtQFzCs2OLRDvvckDP4UWDcF6cLMG3u2IT4QNIJiGvaWsE/8Fk5gmTRpfzc77RRCOf3WlfD2on1+AGQQuhJsGmbEk8eXLl82aC3T3g7ZCkckHA7IGoaE0daTzAA3QcQHNd9FAgo6ICCV9G1xbt27dDHMAnYaR7eFlAau3gnd7uBMg7Pl5h5ImTmYi8sWT1ouGQXQoHDypp97NXViF8v7POOQCeYqoRoV6uvz3n3ru+dw0NKpYoqp27N+i/xUooa17vlWi+IlVJH8x7dq/VV9+u0wjekwWiywljJ/INFKi8+DFy+d078E907o5VszY2rLrG+XIlkcnzxxXymSpxJoIjvRf7jJp9L8CxVXxw2qqWLKqbt+9qUPHDqrz4OY68t1FY0rWSWANhf1HdpvrjRsnnvb9ssurC9pLmUWdhk/towJ531e0KNGULVMO5Xorr77b8bXy5Shg1nuApdi253tlTJdFMBeRIkZS0UIf6uyFP3T1xmWV/aCSTl84aYDSiTPHlC51BnNeQAuLXf119aKKFy5l7MJiW9XKu6bUD8i3EVYBAvMVK63my5cvILf9eh8bIATKfCG6szsBAjcKa4MOD9/obJlxyzC8o9YifsHNdPj0MAIFEDigtb4BTYispkM4ZgsdWSkFtqNvAtUP1qClMZQPJTb+HZQocuxatWr5uitpBVIZUIGwF87YBv9ew5u4vTsBAo2AWJBozKxBpm0ylP2zZx4aMa2fWYiIJkJE68ULlzZLJ9NtsF7Vpqra/EM1qtHSrJvQqn5n01Hxq82r1OHTXrpx828t+2qBhveYpANH9urLTUs1begCfdK6nMb0naGHj+5ryKRe+nzcKpNC4Hg4/i27v1X3lgNMN0Jr5CmTViN7TTGLPE0c+JkuXjpn/vQd20n71p80zvz6rWsGzExfOE7FCpfWD7s26aMPq5kyrC5DW2jtnC1mBchKpWvoxs1runH7uro076uiNXJpw+c71LhLNa2Zs0XTFoxRwviJlSFtZm3Z9a3y5ypowET7AU20ft52sx0sy4YfVivP2/l16uwJrd+8Uu0b91DT7p9oYOcxBiyQkvh96z9Ljgf1OxtWAQJpNdThlmgsoHYJToAwZ84cl9XuAb1+3ku0GARzgWnR7tv5Acb0oKGE0t3D3QAB5oIUN32AXH3vYOhhHkiTh6lWy9bDhhaGSQAQkF5AtGM1HbI6ASKugEkYP3686bcNeqclMAsWMXiB6Gron6ZJfDywDxa48EnhycqNNGcixcC57eHcAu4CCL+ePKwtuzYpYfwkpi0wix8N7DTG5PQnzxupDwqX0tuZc2rsrMEqX6KKicQ/XznDrM7I4N0ZPLGnWYshaeLkBlQQOceLHd+sbkiL4weP7qvXyPbq236YCnyUxbQwZuQqnVpr5vyglV8vNu2bWcSJlRab1mpjFjxyBAh71h03Tpr2xqs2LVWLOu1NWgSAMGneCMNa5HnbKyplOegM78fThb33Xx8D8AKDwAJUtI0GQNBl8RGLPa2aZRiSE9uuadXGJaYtcqVS1fXV5tUmVVK/alOVb/ieAQgT5gzTwi/RMsxS+eKVRWdK7hltQ+12FdS8dnuzkiNrMZzaft35gw/gFmEVIFjzVmCV4cEBEAimKDtkeS3/zIkBfITBvtsLT0+TZqZqwJ0VHu4GCDh6FgBEEO7YTtmvBwCogCmnPUCYEil6vynrg8PB8IJbna14wclx8yFa7YjJwQAiaNAxffp03bt3z6QKqBGldNLZgB7H4SOmQwmKCJI0gveBzgHgAhDhodjDuQXcBRD2HdqlGNFiKE/2/Pr7xlV1HPSpSQvgoB0BAq2NK5SorHSpMqrrsFaaM3KpokePYZZr/mzZVJcAAu2T81fIqIv7HpoJGICwa81vmrZg7D8AYc5QNa3d9l8AgRTD0e//1KR5I/X76d9MOqNBtWavAcK8FdPF2g84/IePHihSpMjKXSa1lk792rAKB4/uM+kMNAj9HAACa02UqltAu778TTValTFrTjgDCNwvx2/Rs7ZG9Zlm1rB4DRDaVlCzOu1VygYIMoUir4pFIkR8taJlBJk1TKhEoDQxMCM4AAJ5apzpmNnzVb5q9cBcXqjYd/LwIVo0c4rJu9PB1l3D3QABDRyOHubc1YCVslNElb169TLi/pAegU4xeL9gCxg4trX0q/EQjUrmzp1rylBw9JTZsciRX/WhpAxAYqiFSVFQvuh9XXcoRFgK1MZs96aocoP7BXEHQLh554Ymzxulnq0HGS0AugIWVIKunzFskWYuGm8c8pQh800VAusqsBpjt2Gt9eDhPbMCI8wBAKFowQ+NTqDHiDZq06CrEsRLpCbdamj2yC/k+eKFJn42TNOGLtT4OUMVNWo05cqWVyfP/q4W9TqYNR1YSCl50lRq26+RWagpZzYv4ZlptFIsoY79cEUeHk9VsnY+/bzpnP6+cUUVGr2vxZPWmaqEBp2qmtUg06XOqMY1Wpo1G8bMHKT8uQqp4odVlTldNqNZYI2IK9cvafXGL0xVRaHKWdWlWT+t+HqRWRI6c7osuvz3JXVq2tuwGckSJ1fdyp+q2Cd5tGTyV+o9qr1hWH78abNJv7AOw6atazWu/yz9r1oONavdXnUqN1becum0f8MpxY/r/4oJV961sMogUMHAPBLYaoOgBghWsJQkbQYNnjjNlUcQJrZ5N21S1a5VS5MmTXLb9bobIKCbQyRJEEzZvSvDapRE34Q3AiC4ctPet4FNIDdDZzOAAZUP1On61lqSJj8IHkkzkLpA8+CdiiPPg3FpRhGY1Q0Dcj9heR93AARq+588eawY0WO+piCfPH1syoJix46jZx4e8njmYUof+RvhIvl1/qbMkH4CcWLHFfuYtFbkqCZFgWgPcPrw8QPFjO5VQ8z+nMfT87nZN3KkyK/W2ohk9mffCBEjmIWW2A6BoDWg+TkvxyRdETtmHMOUsS0sBsfi3wAc/m3dD/sxuH6AM9cWM3os8+9nzz3MdT54eF+RIkc2i1BxP1GiRDX/Js3gdV+RFDVKVLNdjBgxzTH4HdtwrueGtfPa/v7Deya9YbY318liYcHTOyGsAoTQWsVA6+aGDRuqTusOKlPpzakqKJs/p0qXLBGuAQIlizAopL1d9Uno+qgOzJ07t9OmSsHhd4KcQQjMRQIKQFbHjh0zxqB0iDpV77mXqlWravDgwabmmBIRcjSO9cxUUrDug1VKSRcqe7hmAdJD2O7ZfWn++NXG0djDtoBvFmCpatiWHq0GqmHNFooQ4eU/lL6h91/9/xXVb9h+bz83LTnYjhHx1e5mw5f//r/Dfq/aeLw+ltcxXl2lwUIvTW8W31IMNNDhD63FAzOCmkGwAELdNh1V+qPKgbm0ULVvuXdzqVSJ4uEaIBDYIqpnyYF+/fq59HzQ67HYICWoYbKKwaW79MdGGJG2x6QIqPsEcbFyJKIda5AyaNmypaEIWVuBHguOg57orPSFUWlEERKDaND7amHuFOQE9J65Bxp7DB44xJTuxYwR8muQB/Ta7f1C3gJoJToM/FSHvj2v5ElThhmAQIth5piFCxcGymjuBginT/yuRw8f6O1ceRSFUlo/xrHDh7Tt242q17yVEiRKrCePH+nRw4eKGi26YnvLb9+9fctoyWLEimUYq8AOGyDIMNqkvEkz4ONcGQAEGnPhy2DLQ3qEKgbBunloFYxCX3MoY9bC3r17t/nbcTg6Zcs5Q+OA0g4fPmyoGRokBeegn7slgCStYaVGEGVa2ouwBhSYPFmbvdT75bVoUuAWswlO29vHdq8FSN18WDu/7ty/o+NbLiuieefDBoNAtdWjR48CPT+4EyD0btNCnQcMNqmpUX16aOycf9aF8P5mnDl5Qj9s/EolylVUn3Yt9dmqdYqXIKG2f/+NtmzcoL6jxitmrH+CgRol39f/SpZWhz4DgqSSwgYI0okTJ1SjRg01bdrUtOl2ZRw8eNCURPLHHTq6UAkQLMORaqC6wUo50OwIASOrL+7fv98sOb1v3z7TNhOERbkkAIEcHu1C+XdwOGdWPRs3frwGjJmgX5/FVK1sSeXp8VSezzxMPhsV8qBBgwwDQqrE9N1/zYm68lq4dxvAFg2mEBRRQtej1SCTP38TSq7ca9k34+xoN548eaRqLUsZ7cPc0ctMGSp0flgBCOidAMIrVqwI1ENxJ0CoXaa4pixapqTJU+j4kcPKnserUuv5s2f6+8plxYoTR/ETJDQC20M/7dWOH75Tu179dPTgAe3c8r069B6gy5f+1LiBfVWxWk2VrVzN7P/VymWaMnKoajX6VM07dTN6nauXL5t5Nm78BLp757bZLlbs2Hr44IHRy/BvvwYAocQHRTV27NhA2TswO7PUM1o3d3RS5LqpSCA9ztoQ/HFlIKYFWFAm6o4+PqEaIGBAOklBA7LgEoIw0BfsAnkZnwbrCVBOQhtnKhtw0EHpnElZgAIjRY2mMgOnKVuZqjr29Qrdu35VD25exHAMXgAAIABJREFU08kNX+jZw/smxwRQoKUnGoqQWLXSlRfO1W2IsCjFYYGRly9eKnP6bIr6qr2wq8ewt3sTLfDSVEzQxTJSlJj6uFpnDWnZRYnjxQlTAIFcP3MLi8gFZrgTIEwaNkg/7fxRjdt2UImyFRQ1WjTjvM/9cUrnT/+hCBEjKlPWbMqQJau2bvpaB/bsUse+AzWid3fFih1HPYaM0P3793T04H7t3rZFg8ZPMazKnu1bNHHIAFWr19AAhIUzp5qUxL07dwwDceWvi1q/YqnqNW+tORPHGpYhfabMTgFC7BjR3dowyfIL7gIIBLoEsgRfpMhdGaysi6aOVLudYvDDYt99950pgTx69KjZqnS+LOrxSXFFjeylMr9x96Hqj16uxx7PjJgDgEAJE6g3qEACZSqsXgl7kbl0Vb3XfpCixY1vzu/x7JmePH6sy4f26OaJI2pWqojey5HF9Dmn7wMgISxG4ICxc+fOmZ71jmtpuPJyv2nbwKxQkgvwDKy4LSzbJkXKlLr8IJ6Onb8nz8iJlDxeXEWLGllTm34SZhgE1h6gFwLN1AIz3AkQiN4P7d+rAZ3aKXW69Fq04Tvt2Pyd7t29o4rVP9He7Vu1ae1qkz64cPa0SSW07dlXG1Yt15/nzqpNjz66cukvRY8RQ73bNNfkBUt17MghXb96RbPGj1GFajUMQFgwc6oatGijmeNGqsgHJZW3YCHNmzpRv/58wBwD/YOzAYNw9dJfbnFy3q+NZ4aAPaQH56X0nuCR0nxXBoEaSxm8/fbbbgkyQz2DYBkRI9FkAsf/Yd5MWj+4sY/2zdpkrC7fumfW227WrJlpHwrVTwTvHyah5PTDmlkzq5LGjqp4MSIrYgSZtSN4sFFjx1WdNT+/bidtdWND1PP8uVe5WezHt1XqxSUDUuj4CEjwqx+EKy+LvY17LQCDxbOeP3++6aluDy8LnLl4Q7+cuKIKubPr0fUXemn1IwrFVQw0W+NPYDVK7gQIzDe8jw/v31eXpg2UPktW5StYRE+fPtHHn9TR8aOHNXXkMA2fNkvXrlz2FSAkTppMU4YP1p7tW9V39HjlyPuOapcubgBC0w5dtPfHbfrlp71GyJg7XwHlL/KeARY9WjTR5IVLlTBxEqefQmjQIDi9yGDegOCW5Z1hZfFlrgzWN0KUP3PmzBBfYIrrCzMA4ciRI0YMmDdTSu2a0NpX2/78xyVVG7JIN+89Mj3GWRgDkACr4Kyt6ouXL/XQ44UePPVUielHdPLaIxVIE0d18iVV6azxtHHxDNPRqvzE5YqbOadoIQrw4A/sgNVNEkeyf8ZQXf1xgwEVrAdBFUZY0yK48gKHp21sgOD8aXvce6HTJ+7o3F+3VTBL2lBb5kigwfzguICc87v77xbuBAirFy9QjQZeQHXaqGFm/nmnUGHt2vKDug0apt8O/aI9P25Vs45ddebEcW39ZqNhEDauWaVTx35Vp36DdfHcWSVLkVKRIkfS/9k7D3gdyzeO/+y9MyIrssqIjJBZKLL3ioys7E1kZYUUKSObUIRQSLLVv4GGTdl7O4eD8/987+PhdbznnHef4b0+n9c5zvs893M/9zPu331dv+t3Fcv2tDr07Ks23XqpWonCeqNOXdVp2kLvNKilxes2adyQ9/TKq6+peOmyWr96pQJv3tSk0SO09KftSpEyVbjD5wcIEnMYpbXJEoME7ogRBoPzhjaQP80xnBGD3EKIYfGAJnqjWJ4wt7x5K0hdp6zQgtPpVLtFRyVImU634iTS9SBCpLCowj7IvWDp1p17Cgy6pz2nbigg6N6DjfOmS6Tre7fo2LLRarp4kwICAxU7VixDHLEyFkzi9f10x1Wd6+nakX+M0iOrTQCCBSQcuTH820S9EfADBMeuyfeb92vVD/v0Xp0qURYg8OLl464Ee2QChD9+2anj/x7Vto0/qlDRoqpev7EhKH63fKl+3bFNhYoW0ysVKylZihT6ZsE8Xbp4QW91eFeXL1zQt18vVpnXKuuPn3cq3dNPq2TZCvrx+9V6rVp17f/7by2ePUNp02dQxTeq6et5c/R8wUImhJq3QCEdObjPCHcRxhjwbjuVrVTFfMIDCX6AIMObY6LHG+BoaW14CxBqLdK7Y0+g57aK0h4E27oOiEsQL9wwpq2K5Q67fjZD02f6ak1O20VKnuGxkTJeT4MTQsDCw//zd/NXY7fuPnSVxosTS6kTBKvi8dlaMGemGq3Yo9t37pgJH4AAGQiwYBlIflXnurp2ZK9RzKLv6dOnN9s6G+rw3KX2t+TuCPgBguMjSJjhxqm7Crh496FYkYXPo4BQEiqshIqsgnGOn9mjW0YmQHC1z5Gxnx8gyJDrKS7IfYcnwRFjLmHOiIxCTfQvygEEdAV4aGEZr1+/3nxA+rjneUGvG9VaL+fNGubY3rl7Tz2nrdL0wJdVpHQFJUmS1BAVcc8kiBfX8AnSJImnNInjKnXieA9/529J4iploniKGzuW8o/5nw6cC1Dp7MnV79UsqvBcSlPDm8yE3DWaqVCr3sZzYAiQpDHa9OjCgb+0YUhHxQm4akIMhDhQc4QLYQBFNEp5dOQmjsnbUOwLYIqcNw8rJNUOHTqoTJky5rRZgaJ/4bfHR+DenWBdO35HZ8/eVMqkiR4A8qigpEgKNJ9KlSq5den8AMGx4av8Un69FslKio711HtbwSfgfkPc77XXXnPoQHgQ2J6FJvOHry3KAQSKlZACQn6yJX7EoCCtjLu+QdmCmtG9bpjj9M9/Z9XwgwU6dOqCYZxnzJjRMM4hI1HbwdFMgrfm71X1/E+pzLMplDZpPNOXdevWmTzaG7Hiq8YXa00fEIfBe2BN+ugh/G/6WP29bJaez5fPSEcDUPLkyWNIJgAVP0Dw9W3u+vEACKQlUY48tHFPsRrAbeg3+yMw66tftfuv0+pZq4LixYsTAqSjgAcB/sGPP/6o4cOHu3XpPA0QSDOEwJYqUxYN9RdrcuvaRLWdf/nlFwMMKFBYrlw5h7oHOR8gy4IkfgRKmQ416ORGUQ4g0H/iLSNGjDACHxjueSbnkiVLGmnQXVO6KvvT9qvTTVi6We/NXmuEkgAUrN4BCFSKdCbV8PbdYMWP8yhhgeJBvBDuxEukSSdiKyjotuLEjRcCEmLfL4YTHKyrO9fphw/7a8b0acbDQAYDAIFqXFxkP0Bw8i6N5M0R1IFHQsqRrUE+3bhxo8OgM5JPI1IOfzvoroo3mqTGZQurxavFowxAwBvJx119Ek8DBC4SUryrV6/RD7v/UfqnM0XKdfPkQWd/+onGD33PFM4ju+xJNdLjETzCI8lc5ojhTUcQcOHChY+UG3BkX09sE6UAAjoDrPpZdTOxIgxB7j3sTwSQ+A4N61j37ujDNlVVIm8W5Xg6jdE+2HvsrJZv/1vjv96sp556ymQb4D1AnjlHjhxmkrbn3q/Wd7sK5kihEW3yRTieeBHoDzUgJn06RWNHj1L8ZCmVqWgZXT9zXOf37lbbGctVP3sy3bx6xQAczoGVZs6cOc3v7r6QIuykfwOPjwDXHfnuJUuWPNL2hg0bTOlWv4U/AnuPnFOPUd9qYIPKeu7pp6KEB2HlypVavXq1IYy5Y94ACIRZCWVt2bJFGZ/JbNQLo6MFK1jnz5zR9atXTOzd3boX0XEMbPtsAQS8V0WLFnXodAhtsjAhGy+iLDyHGnRyoygDEBAumTRpknDDFCxY0MT6eVDIHUWHmsmV2gqTJ0/WqFGjzGnmz5ZBxfNm0dUbgdq4+7DOXr5uUBZaBfny5TOggIHlw+r9QbaBzSBV7bNdBXOm0AcOAgS8CJcuXTKI7osvvjAeBSsUwuRPrIiVJa5C/k5/8IDw8ZRgk5PX2L+5B0YAT4EtGKBkKxOM3yIegYDAII2esVHnTt3UkCavRwmAgMY9MWFHFe3COktvAASOxXsG/hJeDm8Zrm4mLYrdIejmLSN2DuB50s0CCJs2bXI4e4b7i3D7E8tBQOyD+C7qUgiXEJtB4YzQwK1baL4Hmtg9Dwr/R5sa6UncVVTHsjXcNsggAwzgGzApAw4IL1jeg9DufWcAAseivyA6+oHHg2pbeAoIMcA1wNMBEOABB5DgzaDIBgDFL5QUvV8RhKqoNor9+++/pty43xwbgfOXbujqxdtKfjtJlAAIq1atEuqsH3/8sWMnEMZW3gIIbnXKgZ3//vtvvf3226Y+APVuqLvCe8tv3hsBCyBQP4gFrCNmzYF4wx3lzznSrqPbRJoHgdX1wYMHDSEHrwGAoGLFipo3b16YfWdyBjBA3CDLgaJNTNCYBQC4yZmoARWgYlvugb3Yv7MAgX4DCAAzECrpC24g/gYoAZxYREQuKLwH/u9Pb3T0loy623GNuZ4UA8OTFRnFU6Lu6DjWs0uHgnQ3iIqP96s+mgJPJp8qpIHY96VKDP0n+NH/25AbHyQC3f9bSBv3+2DoQMH3233491ixLYlHmef2woULbmegREeAwLurV69ej7xrhw0bps6dO/v5UY7dxi5tZQEE5jtHM5+eyGqOoCLcW/AJWIkVLlzYFAaKiNlpKRUCEigJzQTNT/5vyY7y0kZnmxU7PwlN2AstWFfYWYBgXj3BweZ4MNwBBxwfj4EFTiAiAg5sP35iokvPVJTaieuOp4taDO6mx0WpE/NhZ+4EBuvyUVTLIhcgRPUQgzcvCYJzhG1tjfcTxHBHqwx6s38xtW1XAAJhdrzVL7zwQqTw1yLFg4CnANGIy5cvG/cWN6aj7loLJDA5AzSI9fOTEAQTMpOztWq3JurwJmdXAIJ1A1tAwWJEcxxbtcSYAAqWL19uUsEARH6TAYNc98iorBaVxh8vHaRNwnjO2JVrgeo/5nu1qVJCz6RNeb8CpO89CKzieAdFVQ6CM2PqzLacMyQ57NtvvzUyvnC28ODyvsQ7RkjUb54fAVcAAtcLcj5heLzivjafAQTcs+RzoiDFT1b3cA1czSFnUrYmaCYvfmdCBiTgMbDqHkQ0SbsDEGyBQmg07usL6enjEb556aWX9N+xY0rxVErF9ccnPT3E0bq9gBs3dePyNUNwI+vIUcB0/eZtffnNLlV78QXFjRMST4iMEAPiM6Svhs5McfaiWCEGZ4hnzh7DW9t36dLFkK0BDPnz5/fWYfzt3h8BVwDCE8FBYPJmFUpVqhMnTqhatWrGlVW5cmW3bx5bMSWrsYhAge1BPQEQ3D6JKNYALq1mzZqZyplvvf+uqrSoracyObdSjGKn5O+Oh0fgn527teaLJVo/d4XJ0yZ+7agF35OunghSUMC9SAMIrJwh6pG+6o5ZAMGZ1DV3jufJff0AwZOjGXFbrgCEP/74w2TLTZgwIWZ6EOAYdOvWzXAOmMzJO6Y2gbtlViO+HI5tYQ8g4JGAU4BZ1RpxLWNWGMOx1kO2YnWB1DKaDJY50x5ZE4zhtGnTIjxsu3btHosvRrhTqA1wPVJtrOvnQ1ShUTVnd/dv/4SMwO3AW5rYcaj2rNuh48ePO8WyDrxyV9fP3Ik0gEAGEu8md3UsLIBARsTLL7/s0SvPewgydmiBLk8dhLLDa9asMRLyZOh4w8ji4uM3mZRShJKcISlGex0EKzZtm4LBCh4wgJQpEw1sYWJc6BzUqVMnSt0rYXkQEMFp27atybTA0D4gVodeg7Oa2IRRWGXZprbQPqsO1B75npcLua72vB/Hjh0zQku4m+yZRZDkOxT/yJ921Sxvz/APRujr09uUMEkiV5sKdz9KZd8JClHKxGLHia04ceN6jEVN+0G3gpQgcUKn+x906/b9PsUxZXAdtaDbQbp75445j9ixY5mfMd3WzVuusW/3N0QqZyaCe/eCNWjsOnWtXTZSQgx4D/bu3WsWK+6YBRAQXoK86gkjfIraHtoBceMSLg2nBK0nDujFNu7evac7d+6alHBn7g8vdinSmnYFIERLJUWIgZs3bzYTP3nhkAIhK5HiB0IC9TIBtm7d2qzA33zzTX366acGJEQ1CwsgcF6I4dgCBNyoTL5wHMieYBtEnchegG1KTjGeEbQQMCZuXJndu3c35x8aICDUgs4/SpGke7JyRyKa/XiBkYmB5wFCJqAErwNcDsSjGHPkmylk1b9/f1PXnvFnVcQ+GFkeaEWwOmB/AAYfViQAnueff/6xy0H7MPRvJY2lgV9OULz43smNPvrnAX01cbaZRNNlzqDUT6dV3HhxVbZOFcVPlMDt2+Tfvw9qYI32mntgnVNtXb14WV8M/EgZsj2jXEWeV+GKjq0KL546p68nztblcxeVt3hBXb98VQ17t3Hq2NFx4z9+3KmRzXtrQK++5j531I6duqwanWdrwjs19UK2DD5Pc6QIHAsYCNLumAUQli1bZtK0PWFws9q3b6/WbWqqQoViSp3G90V6PHEeVPQ8eOA/ffvtZu3Y/rd5vxUoUMATTUfLNlwBCBD5CcsXKVIkUnQqnCYp0mGYrlu3bjU6BLYGy5KHBIAA8gE04BpnYkULICpaWAABYIA8aFgAAU8Cq3p4FYiM8IIAGKxYscIUdAI49OjRw/xOrI/QSlgAgRRPwAWiLYAPfseTAKhgPFnlABYACBzvueeeM3ncABPEoUqUKGHcVuyLhwZwxvVhH64XL0PynqlHPn/+fMP/IO+ZaxPaLQpAYCWUKFsa9Zw+3KvkxO9mLlXyp1Kq5JsVzIT6ee+xunbxit7/yj3xGus+a/dSbX32v6VO3XZffzzHAJXXW9bRndtBSpw8qUP7fzNpHln7qtWpqS6dOa81M79W477vOLRvdN7or22/a2SzXurYup0RL3PGmvX7UumTJFe/hhV9DhCo7cJzAsHSHaPaXunSpQ3Zj/eFu8bigMXC9RtntHrNxx7zqLnbL3f2v3jxirJlqWY8smPHjnWnqWi9rysAgcUjEtV4oCH2+9qcAgismmG2W5Pm4O7N1POdujp74Yo6vzdJq374+ZH+s5pFrCgqiwSFBxDwhuApwTh3Vul4EFj1M5GSFsTEv23bNsPiZuVOMRImbJTa+vXrZ4ACHhT2DQ0QmOzxFKADQRyQcSKcUKtWLTNJs/oHdEFSsQAC7fIdapJ88B4AGPBmEB7AjYdnB6AAQ5vQD4pppJPSPipegIW5c+eaYw0YMOCRa+ZTgDBrqZKnCQEIWFDgbdXPXEZLTm3RhZNntWTcTP3+4w69PbyrSlWvqB2rNurbaYuUMm1q9Zw2Qmf/O6lV05fo9w07VLZuFdXp+pZpZ9RbfXTrZoB2rP5Ja27sMhP9lB6j9O/eQ8pXvJAqt6ilLq80Vo+pw/TDwm/Vc/oIJUycSAtHT9WCkZ8rTrx4qtethRr1bat3CtdSljzPqlLzGir2ellN7TNWSVMm17JP5mrq798odYa05ph/bv1Vwxv30JjvZihznmd17+49E564dPaChjfsptu3bmvcD7MVL0F8zRr8sa6cv6TfN+xUtbb1dXjPPu37ZY/eWzhBI5v3Uo9pw5X7pfya2vdDBd64qYunzqvfnDEaVKeTXihVWD9+uUovVSqlDuP7K/BGgD7pPFxBt2/r2QK51bBXa+3Z/D99OXa6AToD5o3ziEcmrBeTOwAh4FaQGnVbqIGNX31YfM1HQkm8w44cOeJw2d2wzp/nl0p7VPXkOXfX8AiyAOvQqapq1Yo5dT4KvFBf5ctXMYupJ9VcAQhWQTFE+CLDHAYIqG916NDBxOArln5Rk4Z30nPZH600dv7iFb3WqI/27D1qYutMSrjccYdH1SJFrngQAEmMg5UaRPEmSEq48WGd4kkAOKChjb5D9erVTf2IsDwIvFgAE6VKldJ///2nMWPGmLxXvAiEBJjkAQiEBgAskB4Jf+AZsAUI3EDUfgAgADLwamB4MLgOvMgAFQAc+gYACb3qi0yAQF9rp39ZgxdP1Jl/T5oJ7/rlawYAFCpfXH9t/U1NB7bXzEET9dbgd/XN5Hl6oWRh5XrpBRNOqN6ukTZ8uUoth3ZR+qwZhQdhyi9fa/WMJUqWKqWy5n3WTPBtx/RWuyK19OEPs81EzERqGZNtjgK5VeXtOupWrqkmblogyHiD67yrIV99ol/Wbta546dVrv4bBqhYBm/h26mLDHAo/GpJ1e7cXBmyZVKnlxtoyNJJ+nL0NGV6Lqsy5cyi65euqnKL2lrx2UIzwdd6t5nefr6q5h5Yq0G1O6pR33cM+Am4dlMFyxXTVxNmqkCZogbMPJMzq9qO7qW3X6iqab8vFx6PFyuUUMZnM2v5pwtUpk5lrZu3QlVa1taS8TNVvX0jZcuX02vvFncAwt17wWr93hI1Kl1YRXLdJ/D6CCDs27fPLHRIu3bH8PYh8GaRr91pi33xvgIQOnepruo1PMNpcLdPnti/YP6GKleukh8gOElSxEO1ePFiU+HYWe6bJ66bwwAB9AOZ7uKFC9q/eaayZ7Ff3OPHbbvUrPNonT530UxguOGZtJwpteyJE3O0jbAAArHFmjVrPhJiwDWPB4FVPFK7uCdxU1KZC8AAOiY9sFixYmZ1TgiGiwsAQL2MCdoy9mM1j5okrn/SQCFxAqQIS5BfDtAg/sQLCPcSHpmOHTuaY3/11VeGf8CNAxeBeKrFWQAg4DWgH2Q1IAZDfNiqYwFAwCWK12HQoEGPDFVkAgRW1W/lqaIx33+hjYtWq8Sb5ZUoSWIlSpZE0/uPU+XmNfWy5W24dVu9K7+t3l+M1NPPZjbA4OqFy1r84QwtOLLBnBMAYdL2xYYbkDr9U8r2/HOGDJkh+zOqm6Gk1tzc/dhtYgGEkjUqqu/rrR+EKAbV6qjWI3vo2L7DunHluio1r/nIvmePnVK6zE/rn5279Mv3m3X+xBnV6NBEH3V4X50/CRljCJNr5yxTofIl9NJrpQTB79KZC6r9bjO1DAUQju8/Yr57sXwJs2+6LE/r0+4jVeKNsirfsKoBCB/9NF+zh3yimh2aGK8FBmgCgBR/I6TePOmpqdKncfRxcHo7dwACB7t4+aZiXYuje7d9K7XMi5fVf7169Zw+Z9sdIDpWqFDBpKG5mzIZ3QACBMQ4aFk4YH6A4FoWA3MIi8bixYsbj7WvzWGAwATEgzCkR3MN6Nw4zH4G3bmrJp1GaumaLWZSJIuB9D4IdFEx1GAPIPDQ4zIkdQsvCKt1zoVqksQZGzZsaPgBKFwBADg/wAIkTAiBrMwBCky+TMKsCtiei2wZ8X9IhPALaBNiEqt7QgN4DThejRo1TNlqBF0AJRSiwi3KqoWJH54HQIKXE3wPMkrwZPDS41pxfKuwFeAOMIG3g7bxaNBfvAtcG8siEyBM7vaBLp46q86TBuuTd4ep1Qfd9XT2Z3Th1FmtmfGVAQFf/LnKrOhjx4mjgdXbqWanpipRtZz5jswFCIYjVnym7PlzPfAgLP14jrLmyaGXKpfW/l//Mh6DjiXqhQEQhilHgTxmBd6tXDNN3LzADA0AYdDiidq5eqNdgABZDy8HBjiYMXCCOk7or8bZK+ibczsVO24czf9gigJvBip9loyq1rbBA4BQr3tLNc9VOcSDUKujGvZpoxMH/9WR3fvVZnRPARZuXr2hpZ/MfQQgwK+Y3m+8yjd4Q3lLFDT8jT+3/aqxrQZo6Zntpi///nNIWfPm8Np7xV2AQMdId7x1/X5Gi488CAB6QDJpfu4YnghCkTz/vCvcNWc8CIGBt9S/32Tz3H8wspOS2GQcNWk8QNeu3tDkKf2UOXPYGiZrVm9R927jNfHjXqpU+SEhl8m/eLHm6t27uWrXqWiyKWxt69Y/1KvHR9q2w7GMKT9AcA0gsIiEo8b8YPuedvc+c3R/hwECBDomkwObZyl7lvCzEQAIi1b+ZOJ7xLhZCTOBWdLHjnbOF9s9qUJJe/+7pnSpEih1skdRqa8AArG1tXO+UYKECVS2XhWtmLLQZAA0HdBecePH0/IpC7R62hKz+i1Tt7LeaFVPHYrXU8LECc1quduUIfpt/TYdP/ivXmtWQ/NHTFHrD3ro1/XbtOzjuSrf8A2t+eJrs9JnZT932GQjx80kTniic+lGGrpsklKmfXR1PbHTEJPB0KBnK303a6kJb7T+oLsO7dprgMiujT/r5vUbernao/HhdXOX69qlK6rUvJYO/v6XmZjxIMDwP3HgqAE0H66fpcO792lC+8GGd0F/kqRIpvo93lbPV1uYUMEfG39WljzZDZdg3ogp+nvHHypQtphaj+iuyV2Hq8hrpQ0gGNqgqwYt+kgbF6/RorHTlTlPduUq/ILqdmth+BWkkCZJkVRDvp6kREkTe+1R8gRACAq8p6N7Lyt1ssQ+K9YE+YtsIIC8O8ZigKwfQqqkQbtrzgAEA0bPX1axos00ZUo/Va5SMgSgnr+sqq93Vrp0qbRy1cTHuhQUdEd79x5RtqwZDVguXbKlmjR9Q926N3lAimzcqL9OnTqvHzdODfOUGjboqy8XjXLolP0AwTWAQFgZjzBe4sgI0zsEECC/QWrD9b1l2QSVKJw33JvCAgi41knXIXUvc+bMJpMBpn1UsicVIFTuuU0FciTXS7lTql75TIp9vzyerwCCI/cA/IN79+4qeeoQDXKIf2Q7JE2V/IEoz42r13U74NYjbvTbAYG6fSuIqlpmWwyiIoTBtM84l2rLfhwjxVPh69MH3gxQ/AQJdPb4KaVKl0YJEj3M2qHP8eLHf6DJAJBInDSJNixaZcIIAAQmdAiJHC9luoeg5dSR48aLEp7Rv+B79wx50jLCNQCD+AndTxkN79ieAAh/HTqjcdM2aWybN30GEAiZUrAJXpU7hocQDyChQlj67pqzAOHGjQDjAYgXL64mTe5jDj950mLdvBmoTT/9agDCsqUbVKz4C/rjj/0qUiSv/vnniGZMW6bWbWupePH86tb1Qx09ekorVk5Q/PjxtGvXAZ07e1EjRswwAOHw4eNas3qrOnSsrzmzv1XJkgX1XK4s8gME5662KyRFyhKgl4ORgrMwAAAgAElEQVTHODKIig4DBDqJR+DlIvm0een4MEfm4qVravzuSK3f/JtxcROfByBkzZr1QWVF54bVu1s/qQDhtR5bzcDGiR1LWTMkVpVi6VSzdEbdveu7NEfvXtmo3zqESTwITfq3i/qdDaOHngAIl68F6NTJa0oXN7nPAAKrMrRA4Ei5Y7zACd+Ryg0/yF1zBSCs/X6HvpjxjZavnKDjx8/q9OkL2rF9t9at3WEAwktFmmrzlukaO2auatQsa0DAqJEzNXRYe6VLl1ofTZivEyfO6eaNAH0x63199tnXatCgkmrX6mEAwo3rASpVsqX+2P2lWjQfpIaNqqjK6yX9AMHJi+0KQCAMDdcM/QjS2n1tDgMEqkoRE4c099eGacqdI/NjfcXT8Onsleoy+FNDSiR2gtcgY8aMSps2rUnBw5MQlQyAkDtLUvVq+FxU6pbX+9L8g18fO0aKJHH1Yft8alSvppJkTeJ1HQSvn6T/AF4fAU8ABKuTFw4F+gwgIP2OcA88IncMhUBqy+A9IMXZXXMFIGzftlsbNvyiTZt+0+DBbU2YYO/eo/r+u20GIJw8eU4HDvynHt0maMbMQXrqqZQa8v5UjRvXzYQYAAjdujdVpqcra936KQpWsPE0lC/X9kGIoVCBhgYgtGk1VHXqvuoHCC5caFcAAl4uSnPziYwqmw4DBNT8ELlAYCdNqqQaP6id3qhQTEnuS9mev3hVMxd/r6ET5ikg8JZJ6YNVD1MYlcG8efMKcZJMmR5NjXRhnD26CwDh9p17Hm0zOjcWO1awTv/ymdI+c9UPEKLzhfRR3z0JEK6evK2gW/co8GhqNAjpKVvSIn+LFfywfoO1XSwquVr7oNsdsu+Dv91XKo4V+36mRCyZdGQ4CKQUumOQhkljph30Rdw1VwFC2XJFlD7tqxo3vruav1VNn05erLXfbzcAoXjR5tqybYbxIFStVjoEIAyeqg/HdzOhCQBCv/5vq3OnMTp2/IwGDmytIi/ZBwhvNRuk+g1fU9Wqr/g9CE5ebFcAwsmTJ01ZcjLqHK2Y6mS3wt3cIYBAC8SmSbMj1garPkXyJMqXM4txV2E3bgbqf7v3m9gw6XUo+1l1GvgesMBDBGkR8SRvGRkAyBsjbISugJUaAqq2V+dgz+Gruocm6BNmPT/985Ez5mXaqOIzKpQjmTq0qK4k2VP7AcITdk+4crqeBAg/bj+k21fuqWjuzF4HCMuXLzeZQVOnhk3Cc2Q8jh49al7eZGuhSeKuOQMQ8NiuW7dTe3YfVLfujbVk8Xpleiadihd/QbVr9hAZZctXjNeLhRqraNF8unDhim4F3taXi0epVcsheumlvHqnfV316TVRkz7tawBV86aDtGjJKO3f96/q1+uj+Qs+0Av5c+jp9JVUucrLOnzohBImiq8vZr6vdm1HaN6C4Up1n+cT3rn7SYqukRTxUCEXEKU5CAaPBwcbqV8mXgR4yKVHFhTgwMQLw5LJGCIjutGwL0mns6oWQk60AAO/45ZDPpLQQ4IECczHmTLNtjcj7RL6II2QeI2twX1AXvjFF180/ePYrh7H3Yc/Ku1vcRASxo9tshk+freAkiSKa66nr6SWvTketwICNWfIJP1v3TalzZTOpBWWCJV54Onj371z1wDk61euakSTnnprcCdTlyEmmycBQvfRK5U7Q3rVK1PA6wCBdwYfd3PLWTSRqkz4NbSmiCvX3RmA4Er7kbWPHyC4BhB4HzP3El6IjHnLYQ+C5UVgwkdwByEgFP1wfwAOCCFA+GECxhXCCTFZk/4D05fQBD/5G9LEVglTtkfNDKIPvAVqCyBZ7OhgMHjjx48XpUsRlUiUKIHy5sumRAkT6J9/jurixavmmeDhbdOmjQEk9JcXuaPHiKyHypvHrTVwp4rlTaX65TIpR6aHMp4xASDA4Ec2mTRDKwNg7exlKtfgDa+x+klZ3LnqJ+UomMeIGj0p5kmAsGPXf5q15H/q3/hVJU1M+q33QgxUS2RlxiLFHUPEBn0SUh0RO3PX/ADB3RGMuvu7EmIgjXb16tWG34IX3tfmFEBgMuZFSDVHGMAUDIJfwP9B40y6eAI4EQiJqP/B8iXdEZEhDKEeqhgCEDZu3GgkSmnTMmSMkSdmf0SAXnjhhXDHxBp0+tGkaWXVqFVGzz2XWQkTxNOBg8e1bOlPmj/3OxOYRHQIpnHSpElNP6NayqUvL/5v+y+rQI4Uihvn0VKyMQEgbFyyxugNtHi/s1FOtOz2rVsmFXHT19+b1MiTh/9T/R6ttHr6YiNgdPPaDSPC1GF8PyO6tHLqIl27cFnps2bSixVLaGqfD1WzYxMhivRG63pGbyFWnFiq0b6J/tt72Kgaps/ytNqP66eVn3+pV5tWV7pnntbP32/SoV37TFgdEaRf123Trp9+VtrMGYxwU4shnfVUxnS+vPweO5YnAcJfB8+o66gV+rhDTaVPzcvQewAB1y38AXcrMLJQIryASir1Vtw13qloM9SpW0Jt2tZyt7kos/8zGV9XnTr1/FLLTkotIwcOd490XOYtX5tTAIHOARIAA5AWqc+ARyEgIOABQMBlhweBk+F3UjPY3p7IA8CAD6kcIHnU/WjfMiscwEM8bdo0uxkQtEv7PXs1Ud/+zQzpxtaoO/9Om1FavOgHo0SFTDEPM79HReEmX98AoY8XEwBCz4pvqWC54mr2XkiO++8/7tRXE2YpOPiearRvbHQGniuczxR6QiHuVsAtbVv5g0atmqY2hWpoxp5vtXzyfD1X5HllzJFFA6q9ox7Th6tdkdpGTbFYlVeMQuK0P5brq49mK2+xgkbJcMHIz1Sny1tK/lQqfdZztOp0bm6qQX4/e6maDuigLmWa6OU3y5n6ER80660Fh3/QnKGTTP0E6k5ER/MkQLgddFcfTN2gcnlyqkAOvDDeAwiwwimCxgLDHUNtFWVVwptkbXnCGjVqZBQer1zb5InmIr0N3vEpkpUx8u/+Yk2vGn5e7tyOPe+o5hLSh98S5T0Ij068IZM7EwoTtDWxM6nzsWSVnXXjEybg4UVGGC8DbGNKFmO0VblyZYOm8ADwcLZq1UpZsqTXjFkDVKxYvjAfhpzZ6+rcucum/jvSyaRb4uGIivLPkflExwSAgFLhUxnTPwAIjGevSi1N+WVkm4/s2a98JUK4ATkK5dOfW37VXzt+V5dJg9UqfzVN+2OFqWnAPZ0ha0bFihPHcAkaZC6rtbdCyJ2IHR3ff9QAhNI1K6pg2eKmEiRKhsnTpNAX701U1Vb19H79Luowrq+Kv1FWF0+f1+iWffX20C6a1m+cUVbE6/BKrUp+gHD/pj964qISBSZQPCOo5j2AQJgUb+bzzz/v1uMGy5wJnaqtqM16wqizQt2XAgWeNemH0dnTSannoUOmKWPGrPryyy+NZ/hJNVdCDHjq4blE+VoM9i4qL1DrY31vZQs4CwzstQ8hkhoQPMwgKfSo+R1j9Y+yFANY7c3Smjt/sGLHftRdbtvm+HELNWTwDFOnAEZojhw5TIVDdBo80deYctPHBIBAueM5Qyer39wxD8oxAxCQWD7z30lTDrnzpEEKvH7TANyf12zWX9t/ewgQdq3Ql2OmKV+JQipUrriphYAiYdPnKj0ACB807al6Pd7W9m9/VJbc2VWgTDEbgJBSX7z3kQEIAAG8FVSYvH7lmj5s1V+N+rT1A4RwHphrZ28r6CZhR+8BBFbo1C1xd0ULZ6BJkyZmRUi41FNGphg58Gg14KkNy/iOd7Cv3c9kixHWDW/C570K54sQDIsyeGpPsrkCEODsUTiQ8WOu8rU5HWLwdQet4xHSIBSBtwLXIJ4A68GpXuMVAxDCs82bd6na6z1UunRpk6/83HPPGU0GQEZ0Ruievh4xASCQTcAET92E0d/P0N2gO+pTpZXaj+9nQgYjm/XSvv/tUY5CeU1BJSpHHv5zvwZ9+ZHxIHz26zLt+HaDpvUdpzjx4qpwxZLqML6vXk9cULP3fmeqR9ZKV0KFy5fQ+VNnlTBxIr37ySDNfv8T3b1zR90/G2o8BU0GtDdlmIc17Kb+88ZqSL3OGr7iM/217Q991muUZv612ngQilUpE22zHTwZYrDu5Xt3g3X52C2vAgTConzcLYDDC5z0bXhT7oouhX6WrTCuLUfLdhsWUGRnsdDB61qoUCFPvw7stgfnDFCEd5cqsXDFwjLerbjG/e9Y17IY4MqgYkxF3igrteyTu87Jg4CaGTS4CZUqF9eceYNMBkNY1qH9WM2f+71xB1IxkYwLwgzU2I6MIhhOnq7PNn8AELKmVs8ZIxQ3EuQ9PXmyR/86qDhxYxtgECfuQ34KJMasz4dk3YRlQbeDdOrQf8oSRjVEqicmS53CrOBYLd0JCjJFmSDr2hopl9RcSE+44n7NC0+eY2S29de23zSyWW91atNeAwcO9EhXLly+qR3bjunlfFm8JpQ0b9484/Jmhe6OQb4mtZtidLNnz3anKaf2xXOB/gKeVYwsMCrQeltMB1D13nvvPaIfAYnOtlKtUyfyBG3sigeBsuSLFi3SkCFDzFzla4s2HoTQA8NLmRRLsh6eeiqFpn/RX+UrFLE7fnAPcuWoJwiL6DdwM+NB8AOEx4cLDw0vnhM3zmvEys8UL4Hva5D7+iHwH8/1Efj5u80a/VYfTRg7zpDQPGH/HDqj3/ac0uuFcnsNIBCqJGMAxVd3jHY4b17ehEB9YfC0SNlmYrY1+kHKd2iA6qk+oXtD+3hvbY1wLeDEVx4MT52Pr9txBSDAP9i8ebMBocgA+NqiLUBgoHDBoZmASFLmzOm0838zHqmJzjaBgbfVrMkQrf1+pymZCf8A8SQAwjPPPGNid37318PbztTT+PRTdevRXUvPbFPCJL6/KX39EPiP5/oIrJ+3QmPe7me4QJB+PWVBgXd17fRtrwEEvAfE+ZcsWeJWlyE6tm7d2nCi3G3L0Y506dJFc+bMeUSpln3xTlE9l2wwb9jSpUvVr18/k7IeOuzBQm3lypWR4gb3xrl6o01XAAJEfe4xgGxkeLqjNUDAHQ5RhonfIi9OmtxDJUsXMNeXeuZdOk3QwYPHzQNMaAFNBuKOhBgyZMhgXHLeQtzeuMl80SbCHBCLyjZ6Q+3G9jFlg/3mH4HQI3Dm35Ma8GY73bkaYJjWngTad4Pu6erJWwqOdV9U0aq14KFaDPCZePlSSM4dwwtBoSYmTApA+drwXLRs2VITJ0706aHnzp1rNGUYR785NgKuAAQy9diP97G3w0f2ziJaAwQeSrwIuGBQmqIwlD2DjAg5kTgd4IB4IV6ElClTGp2GmBYXdux2DXsrxhRVONQpKzSuphJVyytv8QKKd7/uhrvt+/ePviOASsnVC5dNauh3s5bq5unLRsqc58uTFnwvWCf/u6Y492IrQdw4ISjBg8Wa8B5Qj4GVuDtG2Wi8khD3qO3ga/MDBF+PuOvHcwUgUOsDQUHCR36SopNjb4k2weaFUUuRpkmTJhn1RixNmjRGNwE1RkAC4QS8BgAEPsR0/N4D+4OOy3jFihVq0aKFkqZMrnSZMxgCnt/8IxB4M0B4D+LFiWvi4LiX3a1pEHpUj5+5ot5jV6ln/XLKniGVxwEC9zcfQpTuGHwAdFn4uXbtWneacmnfmAwQWKiQ5s773FZAz6WB8uJOzCHMMS+//HK4YQBXAAJzGgCcxZonQ3iODke09iBYJ8mNBLuWh5RQg+U+tIpD8fIi1Yb6EKQEMdDklHrSJerogEe37RjLGTNmmJVWePnYkX1e1Pkg5xqvkDcMQRzOH+6Ktw0yGCsHqp76Or89onPD25YtWzZT1bVChQoRbe7y95evBWjQJ2vV4JVCypc1nccBAqnSuMmZgNwxQAaiRtwf7rblSj9iKkDYu3evIZMnTJIoJJMqbIkbV4bNs/sES8i4626wqTcU1jvIFYDAnEa9j2gplOTZUXa9NUvRETefBQ6IL1oAwaoPwcsWoGCBA39owfUxj2p7ci1RsgsvJ9udPlOtj5Q42xLm7rQX3r779u0zvBrc4FQKfFJt6pKdOnDwvPo3qeBxgECaIBoG6Ai4Y3gvueeo60Co09cWEwECqX0NGjRQrlL5VadLU+Uu8nyUDgMz//y2Yaem9pugUweOGWEje/oaO3fu1GuvveaU1DIcBASzKAjm5yC48XRZ4QaIi6zA8CrwMrctRQ3fwFUJaDe65t/VByPgBwg+GGQfH+KrtXv00dzNWjmipccBAlkMSBrzccdYkJBVAP+JCcDXFhMBwpgxY0wq5eorP0crgvThPw+obeG6hr9F2Cm0bdmyxfDgnKnFAMcF8FmqVCmPh/EcuVdjRIjB9kStipO2EtBMHlZ5Z7/XwJHbIvpt4wcI0e+aRdRjBJMmz9umd6uX8jhAsGLa7r4PyKLq1q2bfv/9d1Ol1tcWEwEC8XZSNTfe+8vXw+n28crFft6oTNqT3SYEhSfSGYCwdetWwz+gYBOcOl9bjAMI1gCGJrW4+yLw9YXxH8+5EfADBOfGK7pszXN8+VigxwECGQffffedPvnkE7eGglBmjx49THG53bt3u9WWKztHNkDAE+NpQ0+C8Fp0BQiNGzc20tehDRIroQJnAAKaE4RcINv7azF4+k7zt/fEjIAfIMTcS335WABlmzya5oi4GsTCokWLujVwEFep7bJhwwZBrPO1RTZA8Ob5ehsgBN26bQiQsWyK/FFL5fK5S0rzdFqXTg0PQlgAAVDKdwCEXLlyOdQ+pEeKisFziQzCcoz1IDg0+v6NYswI+AFCjLmUj51IwNUgBV6541GAQGGlWbNmibiwOwYxum/fvkJc7ODBg+405dK+kQUQqOborawmKmzycRcgUCtl9rAp6jSh72NjS22U8R2GquO43sqQLdOD72e+P0k3r95Qx/F9XLoe4QEEhLTQM9ixY4fDAAE+HSRISI+RkZLvBwgu3Qb+naLaCPgBQlS7Ip7rT/kWn6tVtWKqWiKP5CElRbIYcN+6Wz8gMDDQyA8jQ4yapK8tsgCCN8/TUxyEX77fqkXjZqrzxwOUJU/2R7pMxdfP+45XzfYNlTFHZvMdxdmunL+kucM/U7dPB7l0iuEBBEInqE9u27bNKPk6YoStKCwGJ8Ovg+DIiPm38Y+AnRHwA4SYe1us3bJfz6V9SimTJPIYQCAk8NNPP5kqee4YK+kBAwaYQk2ELHxtfoAQ9ogPa9JbmXJk1rP5c6lcvcoPNpw/aprebFtfn/YYo+YD2ylt5gw6+Mdepc2UXqtmfKWLp897BSBwj8BXwWtFgStHDF0fQlevvvqqSNf3tfk9CL4ecf/xvDICfoDglWGNEo0GB0sBV4J06zphhmATanhQNfu+/LL5vyWmY6ptU4Lb4i2EnEas2IbJYLa7fPmy+SD65I6RTk35Y4SXKKrja/MDBPsjvn7BKhWtVEp/bvtNX46dqU82zzUbzhn+mfk72gqTuo9S3c7NhDfhhy9Xq9mAttr/2z/6btYyrwAEyoEDJjdt2uSwgieZMVOnTtXkyZON0J+vzQ8QfD3i/uN5ZASIzVWvXt2oZ2KolFFfAwlt7J133nG7/DAlVllpYhTlwZ1MBVAMtTRkUD1lTDQQkjDynikqRhzWWjlw3MhgMXvq/NxtB3Bw83KQxwCCp3QQuA8HDx5sKqACOHxtMQEgNGrUyKQFWgqE7oYY7gTd0YjmfZU0RVJR0+PntVv1+c+LlCpdGo1qOcDwC5KlSq5Pe441IYbDe/Zr7//+VOvhXXT+5FmvhRjgvaCRQLpj9uyPhjzCum+4v9DzeeqppyJFLMoPEHz9RPuP55ERIP1twoQJxmUX2pAoXrhwocqWLevWschBDqsIEe5CXmyeMtzTaLkjqxra+DsxbuqIPInGtf5tz0nFDYqtLBlSeMSDgG7Brl27TK0RdwxhNsIUVFOMjMqGMQEgcA4ICFFHh4nQXYDwv3XblPaZDMqaN6TOxoLR07Vj9SZ9/NMcjX57oPKXLqw33q79ACCcPHxMO9dsVrsxPXTp7EWvAQRA0IcffqgffvjBYc8VqoyA2WHDholx8rU5DBBgrKJwdezYMdNHXszPP//8Y/1FGnLQoEEqX768mjVr5pXz6dmzp7mRYA87Y9RrgCBiSaK+//77ZnfISjzkQ4cONe36LXqMALE5JmkKddlauXLlzMrfE9oXtWrVeqyML6lxrAI8WV2NiYaXAPdgaPv8889NSeEn1QgMLFz1h37ddVwD3wqRXXY3xECRKe6RkSNHujWsrO64buPHj/cDBBdH0pr4KHjEKhu2v6tCSZAMhzTsqZJvllPdLiHzz/LPvtSEDsPUbkzI37u/2kpZ82TX+ZPnVLRyKcND+LzPOAEUKjWroY1LvlO/WR8oZdrUTp9ReCRFpOAJFaCHgLfTEUOICx4Ccy1KwL42hwECJ8ULuXPnzkZWdOXKlaZgiz1j4iYto3fv3l45HwaMuB8vTmcMhJo7d24xgVCpsE6dOmZ3Xs6cF22y+nySDNc2aTTOGGQZT0y+ER2TfpFGFl4lNybO0GItxII9ReghhEHFP2uMOG9WAuQze9pIf2rVqtUDEE77SINbYZTQx+McPV1F0d45Mf6Q8ZwxXmaeLIb2zQ9/afjUH7RufGuPAAQWC3zsaeY7c57cF8gCjx079okCCBS6gpHvaWOBxuRJ7N3dNEdP982R9sIDCOPGjTOF7xDoypIliyPNGfluPKWMt7v3qkMHDLWRwwABogTsS2JtvJR4caMitn79euMaBUkTByZuiweBokgQgHhJVK1a1cRPcZeQy/nbb78ZRMSLFyYx6RvEXdkXIEKsN1++fCZOwwCBLEkRYXtcvsT6mMzr169vqt41bNjwsdUcecmUc+YlWqxYMRNDxutBjJr4LiDBMm5GxCi44ekb3o8nxUDqjL0zNnDgQGXOHJIa5A0DsOHeR1CElTr3WljG5Ml9ZQtybK+tu/3jvsYdzb2Oce/nzZvXa4QhvCG2sWzKlNurIMlzVLBgQSP0U6VKFa/1h3PmGXN2pc2zWbFiRXeH/8H+Zy5cV9dRKzSoeUVlSJPMbQ/Cxo0bzfuMe9kdAzwxNjxHT1KIwQIIvLPdNch7lrVr187oK9B+TAMI3CeEPhFMcvT9iQeBuYv5kMWCr81hgEDooGXLlmY1h9gDKyhWaqx40JfmZcBETnUzXPe84GFsssqHTEZpWH7nxYEsKYQsJvmSJUvqlVdeMSt76spDzGrfvr1pAxcgKmWAiwIFCpjBBa1TspnwBUVSCBkwcFa4gAGcOXOmCRVwESjGwraUAuZlwAsXwGKb/wyiwytSs2ZNtW7d2sR7vVU22NcXOKLjlShRwqB1JqGIvAJMksTIAVHuVsELr19cZ7xThLPKlCljrl14xj0HUOU+4T70NJmPFz9AlZ+A4YwZM0Y0rG59j8wshtoaz5S96wIgAjwBpinkwvl7y6gmBxBJnjGL4sQPP9Xq9vVrunnhjFn18Hx60toNXar4iqMhrV9zGyDgrQGAeqL6J+CAuPmTCBA8cc5WiAEPL1UcWWm7GmLw5P3mSlsV4uYXIIf+hzZCUcwteN8tsnNEx0AHYc6cOSa8Hy10EHjouZD9+/c38VJW3YULFzYTKzFZbhgmazwIhBiYoGGU4xngwuOepUIVbRC3YwJAaOT11183Y8WKDQIYrmNcgEwUABIABIPOyx9wYoUYACkACtuqbF27dhUfPBg8uLzguDBWiIGSm7aGd4SVKEVXACt4Qp4UAyCwQgQARoRQ4W5wvbwJEPAe4J6GYMiD4WiBEu43wCMv/IiAjivXlhcXQBIw4m2DY4OW+/z58w34DsssoiYsespCu1uZMKzjWACh/ozVSvNsnnBP/9BPa7RhZA99OHqUxwECB7504qZHQgyMFbFuRGjcNT9AcG8EWQAwNzRv3tw0xL3P+33i5jlRvtSzdebmWewwTOvnrjQkRHv8PM6Jdwj3HQtVR4x28Vp6etHjyLHZxmEPAm4Oi8BH8QgAAQ8XkzyrSQsg8AKF8GcBBCZbAAK5n7hYcIeChPbv36969eqZiQDOAgCBbZnIGUjCC3ANQgME9oU7YAEE3LEc23o5Eivt1KmT8V4AEMhP5oLxsg0LIBQpUsScB+EH9rNWcI4OYnTeLqoBBMI73BvE6gBrjtry5cvNPYenyhvGah3viSdcqhH1D08N9zATT0SZCwBqCrngkUPJz5PESaufUQkgBF4LUsC1ILc9CITV+HjifvEDhIju6PC/J3zMXGA72eI5njl7lio1q67nSxR8pF6Ce0fz/N737t7TL2u3avvKn1Sndm27hZo4Kgth3iPMcY56IQlvMofhWY8Mr7bDAAHWL3FPXLj79u0zaT2szmGd4jXgQWOS/+eff8zLnYmbSmms6ggdgKjIAYWckT9/fuOy5OVHiIEVEysguASEBWiLGwYXIHrphCjYDrcl7lTAgwUQAC64dGxXTxwHLwXbQx7ieAATewCBFSuchDVr1pic89GjRxu3rqdIbp6/HT3bYlQDCHgMiPGDtMPzBPDQ2Jq98r2EjFwl9uAtgfzI/RGWcf9y77lLbGWi4sVhGeEDwiu2TGcKteBNsHdf4vmir4wZz4mnLSoBBPLaL58OcBsg8A4DVFWrVs3t4fIDBLeH8LEGCJ0BHFiM8iyER1R25ujMT4cPHzZhZk8Z7yn4ccwbeBrDMjhwhCo5L0ffGfCvmF9p35OkX0fP3WGAwOoJVzR5nAwEK21WK7j4cXG2adPGeA44eVY1vLBYubMSAgzwN0AGBA3c2TygfMfg4plgcsaNAuignjaTOSAE3gAeClb1HTp0MKtKPBeEH8idtUhsAAAGEcOLQJYCfSH8gFscssfixYvNIBNisFik3IDcjHgRyGTgXJhUvOGmdvSi+HK7qAoQII2GZ45M/BBgAYeuGDwWgGt4JXwBlvAlCH+5Y9R6h8sTnuGSxLFbndYAACAASURBVAtnT00NUIsHjPvdCtW505/Q+0YlgLBr3yktW7NHXRuUDummi0qKrMwghMKrctf8AMHdEQx7f0soyBNHYP4C0BMiJT2a+cUTxlzBvBJRiJb5Be2NRYsWRegZtPoFV4ZnGw+4I+88T5yPbRsOAwR3D8zDyMDADcBYsbPaiajspW2Iwd0++Pd/fASiK0BIlSKFdg4dqkJ28omPnjunGuPH6/NFiwy51RWzAALgMSwDGHgCIAB+3+/ZU4cmTLB7qNV//KF2X35pyL1POkAICAzS5Hnb1PTVF5UwQVyXAQIhqW+//VbTpk1z5fZ4ZB8/QHB7CL3eACtxPG08rxgufkjzLB59tRhkgcvCGI6dpfga0YmzsGURjgc+IgASUVuufO8zgHD69GkTBsBbQIiAk4XcGN7F4aKSAoPHwpl4tCsD8aTu4wcI9q+8HyA8HJeo5EGgV7cD7urm5fu6DC56EMh+YnXWvXt3tx99P0Bwewi92gAeZVbvFjiwDsa7j785SoR2t5Nw5fDE4wEnE88Re6KqORJmYEVGHNURNGRtz0B6g3zlyAWK6dv4AYIfIER0j0c1gHDnNgDhtu7dDSncRAEnZ4s1QejkZe2JhYcfIER0B0Xu94AAQt4sUrnm6CxYRro7oTtfGARnvAEseiNK3bb6g5AdPCi2hwPoa/OZB8HXJ+Y/nmMj4AcIfoAQ0Z0S1QBCwK0gHT18URlSJFMs3pkuAARUYXH3hpdGGtG4WN/7AYKjIxX528FJI57vCf0GZ8+G9HxCBpZOjyP7w5UhEQCZ5iidxeDIyfi3iX4j4AcIfoAQ0V0b1QDC3iNn1Xf8Gk3tVVvx48dxCSDAJue8PCEX7AcIEd1BUef7yAQIZObhDWDCdzSsgT4P5EoE2nwhqx76Svk9CFHn3o2UnvgBgh8gRHTjRTWAcDvorvqMX62SebPotWLPuQQQIIZCVESMy13zAwR3R9B3+0cmQCDtmtA6wnyOZiTw7CEcxcceQdnbI+cHCN4e4SjePgCB1ZQz5k0lRUsHIaI0R7IYNg4cqIJ2ip78e/686n/8saYtWeJyFgM6C4i1hFengpoPMJLz5AlfXTCisWWyGtyjh/4cPdrupt/t3q2uX38d6VkMEZ2H7ffon6C26i0b+PH3+n7rPq2bSPEm5zkISKsjyMVL2xHDJY17GH2V0Dn5uIy5X6wqsbbtIexG+jbkbEd4V6H7giYGWi8Q7ewV7YJDgU4M92powyWNeBg/XYlfs9rlfC9duvRYsS5q3SB8Z++cORbPMeft6EToyDVwZBtExrhW9Dm0hgnXjTR69EJC95u6PYwV/XalaiJtc33gDCDwZ89QIU6UKJF5LmxLN/M7x+ZeCX1s2iPVE1KjK9fQkTELbxs/QHB3BKP5/gCE3X/8pkblCkaY7nP64jWt+nmvV6WWHQUIyZMl06svvKA0yZI9dgWuBwZq499/6/sNG1wGCCB2UmxzpQ675OutZMlMURmKJrljgIzunTvrzcKF7TZz8tIl/Xn2rCkaZe+F6ysdhHLVaip5qvBL4J7696h+27ZJH4wY4bVqrgzSb3+fUNv3v9bSkU2VPCnVRe9rIvCl4XLZgAa+4+vYFI4O2Q79E0Rz6tatG+GlI+MB+fh9+w4qQ4ZMET4ntg1eu3ZZx4//a1QxmzZtaiYCR40JDqCM1HzSpMmVNm0Gm5OMuJWLF88pYcJ4BjxQj8ZZ45zRo3nmmWxKmDCxw7sH37unw0f2K3PmZ0waKRozvjA0BhDJ27ZtuzJSNySO48WNbt68oRMnjppUSLwMjoYAzJ0WHGwWWSgGX7p0RRkzUsju/k3nwIlfv35FgYE3TLiL49vawYMHjSQAWRiIpfna/ADB1yMexY4HQDiy7y/t/6KX4sYJnyW79a+jqtx/RpQACKDtj3r3Vg47VSXPXLigIZ99pgUe8CD8r02bMK9YnbVrw/QgUGgMtrJtpbqwGkIfZECfPvpi6FC7m/z855+a8vXXRlk0MgHCjHXblCPv8+HewT+tWq4Pur6j0SNHeqUWg3VwXsrb/vhX2VOlVOJE8ZwGCLDZEWxzRHmSHPQ0aZ5W53cHKFWqNHoo4xjxwxxw84bOnD2lQYM6afLkyQ57LGiZSQdQ0aJFV+XLm1/JU6SK+IA2W1y7dkWzZk3Szp2btH//PqfACSq048d/pBZvdVSpUhUVL358h4/NtTlz+oQ+nTJaTz2VwoAER9P6HD6InQ3xpPz1116NGDFZaVKnVew4cRxu7vatQJ09e1rdur9lRABRPXTUzpw5Y+TOy5apqtKlKyp1mvCLy4VuNyDgplat+krLls0V5FlbMiKeEDJuihcv7ucgOHpB/Nt5bgSiK0BIlTKlds6fr0J58z42GEdPnlSNd9/V57Nnu+xBsHQQAgYMCHOw88yb5zmhpP79dWjNGrvHWr1pk9qNGhXpIYaoBBCsgbp8muJNzocYyEUn9Q2xpPCMynsUEZo393s999zj95qjT2K//u1VsGAuo8fvqAsbN363bj21cME640FwxYKCbqtWrdKq9ubrRpHPUaO6a9q0GTVrZvjjE157hw/vV/0G5Y3arbe9CIiI4SUZ+cE0FSz4kqOn+dh2H344SIG3Lhgw56i3hwm8bJnymjhxjvLmdc2bePfuHXXv3lKJEsc2tRosw3uFhxCVVGe8Gi4PQKgd/R4ET41kNG3HDxDsXzg/QHg4LhZJMSoChMDrQQq8cdtpDwLKrnv27InQ9c5KmjK9O7b/69YTvmTJLB0+8oepT0O82xHD+/TNsu80dOjHSpAgoSO72N3mzerFlS1bZhOucNSiG0BAhA+V3g0//OPoKdrdbufPm7RgwSTj9XC0JDOCW716DdCI4ZNNCMpV69a9hXbv/tnUnrAM/glhBooa+rMYXB1Z/34uj4AfIHgHIJCaREzUkTx7I7Xs9yC4dA8f+veCLl+4oZzP4Pq/34QDHATqxLCyJWYdnnkMIHw1W4cO/WZi+k4BhG++09AhfoAQ0c0BQIAE+OOGvRFtGu73P/+8WfMXfOIUQMB70bv3QK8ABN4j3KfUaokMsUC/B8Gt2yn67+wHCN4BCEikMgmFJh3ZO5ofILj+HK3Zsk/7D5xVs9cLKY7FoXEAIMAM5xPRZO0HCNEjxOAqQCBLxDY7wFMA4dKlC7p+/aqCg6XUqZ9S0qTJTCbImTMnTWGnNGnS6u+/dylPnvxKnDiJeQDseRAoSojyI8UFo3Q1R9cfYf+eUXkE/ADBOwDBmWvuBwjOjNbj2wZcva3bgUFOeRCoKovLHYU6VzwI+w/8rTFjBuj06RP6aMIc5cyZR5ACh4/orVdKV1S1avUfaXaJhz0IJ08e09Jl85QsaXJz3MRJkqpWzSYhJMpQ5skQA4THLl2bq3mz9mrevL2mTZugEyf/U5s23ZU716MEVl9yEOwBBMiSi5fMEtkc7dv11rFjRzR9xkfmd0IBv/yyVQsWTlX/fqPvZ4hIngIIXIIFC6dp545N+uij2YoVK7apaLxi5SKVKlneAIcePVuqf79RypevUJgA4c8//zRcGcJctqmR7j0xju/t9yA4PlYxcks/QPADhIhu7KjMQaDvtwPuKOD6/eJN/MEBDwI6CDDGa9eu7RJAYCcm6c5dmuqLGcuVPHlKs2LcseMnlS1bWfHiPcr69yRAuHjpvEaO7KvWrbs9mJRXr/la69ev1Phxs7wKEGi8bLncmj/ve507d0anTx9XhQpV7XIkIhsg0NflyxcqZcrUKlOmkqZOG68qlWsqa9YcD8ZoxYovVb7CGwZoYZ4ECLTXomU19eo5TM8//6L++++wDh3er3JlK+v27VvatesX40Hg3sHseRAOHz4sMqLatm3rDzFE9KLyf+/5EfADBPtjCosZxnnm5GGzx2OnSmWU+F588cXHGvnmm280duxYbd26NcKL5vcgRDhE4W8QLF29cPOhgJEDAMHRLIaIQgw9e76tQoWKq2nTd3T16mXt2LlJlV6r/lh/PQkQjhw5oE8mfaBB740zkx/G6rRU6We1eNGPypLl2UeO70kPQghAyGMmvWTJUpi0vrBc31EJIHz88XDNmLH8wXhZA0QowNbr4mmAsPLbxbp7545q1mys8+fPmFTKfPkKitDGnTtBih8/wYNrZQ8gQFDE09WpUye/DoKbrwn/7i6MQHQFCIiGUOHMXsoYL0sU4KjSVqBAARdGRUbatG/fvnohW7Yw978WHGyEklw9htUwbPXOnTopXaJEdo916+5dBcWPL9yN9lKdfCWUFBWzGBiwc5duqGGP+Zo9uK6SJU7gkAcBVURiuxkyID4UtkUEEA4e/Edffz1XXbsO0rx5n6lVq652G/MsQNivufM+V+9ew5Uw4cN7pniJLBo7ZrpZLduapwFC8RJZlSVzdtWp21wNG7wd5uBFFYCwceN3+mPXL5o1c6UBT7GMqpZ98zRA+O33Hfr8sw81btwXmjVrsjp16hfmse0BBO5RtBBy5crl5yC49Cb37+TWCAAQ/tz1u7rWKq04scNX/zp65pLmrP8tSgglISaCpjkPTmg7deqUUUFklejo5E28ko9FWHqQ5hiGNgHHzNOunUd0EMhx7t+hgxaVK2f3Wm4/e1YTT50ywjn29Nh9BRBqtWyr1GnDr2N/ZO/f2rR6pUaPHqXu3bu7dW86s3OlNtNVukBWdWlY0iGAgNzu2rVrI9QGiAggsAL94IM+ata8vXb98YuaNWvnE4AwavQADR8+SWmfSn//eMEq8XI2Lf9mu9Knz+hVgIAHYdjQjzVz1iSVfLmc4R/Ys6gCEFKmTKNbtwL0zTcL1LFjPz3/fEjM3555GiAQShg2vKdeeqmUuVYlS5Z3CiAg6IUWQpMmTSIk1DrzvDi6rZ+D4OhIxdDtrFoMBhqEg6z52tKg93UtBhQE0XXPnz//g6vARPnzzz+Leu6hjdQgVNU+//xzhwEC0rtMaHgOsmfPbkqy9uzZUwFeAAiEJd544w2jz4+ZEEPHjjpYp47du2z18eNqv29fpAslhbfysjpu3SNo3hOi8ZV99f1uLfl+t6b0rXE/myF8qeVz584ZL1NEdTQiAgic37Rp4wUHYMnijYobN57XAUJAwA19NHG4atZopLx5Qzxk6Cz8/MtWjR0z7bHje9qDYHEQONfWbWoZDkL3boMfO25UAQgoUJYvV0V4EmbPnqyRI6coQ4ZnfAIQOMi6dSv00cRhWvXtL+E+DvY8CAcOHDC1I/xSy756k/iP88gIABAgbA0aNCjCYiAQZojN+wog4AYmVrdx48YHsr0rVqxQzpw5lSlTpggBwrhx44RMrmXIM9saWvdWIRo0Cxo0aGC+fumll1S1alVTjCbwu+/CvGNytm5t8tqffTYk5ssEiqSsvbAHKXU3b9402w0cONAAkCpVqhgWPYVjhnfpEi5AeOeff7Ru3bpHZFit8/GVBwH52YwZH12dhh4cxnHhwoVG/c2RFE9PPo5lmk9Rx3ovq0rJ5yKsxcD442EiFTU8cwQgnDlzypDb3nzz0cwF23Y9GWKgXfgO7w16V53fHagjR/Zr//6/1aFDH7un4kmAQM2CRo1fU7t3euj11+vo5s3rqle/vCpXqqH27fs8cu9HNkC4ceO63n+/q06eOqaBAz5UvPjxNGpUP506dVxVqtRSp479Hgs3eNqDYF2Qv//ZpXwRqCzaAwi8m/Ew8n72ZzF48m3hb8uhEYjK5Z7btGkjwgVUSYNxTmUzJuGGDRuKtKaIPAgJEiR4hNgTWlaXSo0UwiEOTawPtjAGv4GVJcWRgtatC3McU9SoYbT8eXCvXLliOA9MOPaKN1mSqfAjWBWcOHHiwbFQSfv7p5/CBQh1t2wxwMUWfFjn4yuAwOQfUcgGbwjSxHgQEK7xpU3/+mdlT59SL+VFzS58DwL3FRr69jxQtn12BCA4co6eBgjWMZcum69fftmi2rWaqGjR0l4HCI6cq7VNZAMEZ/pqbestgOBIX+wBBO5Tnrs333zTeFF9bf4Qg69HPIodLyoDBCYjOAForPOivnz5sipUqGCqngESIgIIrVu3NuECNO0JN+CRsDULIFCqF3lT3P64xcuXLy+EjijaEl6IIVfbtsYTgCwtlQFff/31MAECno+33nrLhBPoC3n4ABj6iOb7okmTwgUILXftMt4GwAukRtqhtC3mBwghV5Xwxq2bQbqFJkIEAGHZsmWmDsOMGTPCfSKjOkDgnE+e/E937tw1aXOvvPLqY1oInvQgOPP68gMEZ0bLfpoj7zyKioVeHDjXsutb+wGC62MXI/aM6gABMuKQIUPMapRYnOXidoaDAJkRPgF14u0BBKopMvHiRSAzAnOWgwCHAU9AWB4ECyAQ0gCEbNmyxXgc8Ig4y0F47733DGDyA4THH8E7QXd189otBQffe1ifwU65Z8JLfCJalU2fPt2UrV6/7k+jhueqUdnw3r2rGjNmTITHtI6Bl2zSpKma+NFcJUrkWP2G0P3DY1Wj5ssqVCi/Fi9e7HD3PVGL4dChfWrQsIJPijWxCKBM81dLNiuFk1UvbQdl2bL52r7jOwPi06e3CKDhDxvPftOmLTVm9NRHNBYcHmzJhFK792ihkyePiDohllEIivdEixYt/CRFZwbUv61nRiA6AAQ4CEyktiQ5TwOE0OVoLYDw9fvvhznQ3WfOfJDF4AxACN2gHyB45l6mlTt37+nHbQdUJPfTihs3doi6oh2AAE+C2K5t5Tx7vSC8BcekYsUQwRtkc521bdt+VO8+rQ044EXvqKHB37hxY/XsMVxVq9aNkCMUul3IjIsWzdS06RP07bcrTclgR61du3batGmrPhgxxYj52MoRO9IG6o4LF87Q5i2rjRIgnjxvGt7BcuXKKVGiFBo29BNlypTF6cORCtmxYwMTdsQr56gRLiTUWK/e22rdqqvTYwWIW736K02aPFLTpn2uV1999cGh9+3bZzxd8H8crS7paL8d2c7vQXBklGLwNtEBIICgQxsPS6VKleym/eEJgPjHqoIwhSMehLAAQoK4ccO8+hkyZfIYQOjQqpWqZc5s91gnb97UkXjxHmQx+D0IYT+QAIQGPeZrcOtyypYxVZgAgSp5ZDHkzp07wqcbINGhQ0flz1/EBYAQrO3bNyp37lyaNWuW0dR31PA24fn65pvlRn0vVmyjAOWwBdy8od17/qc+fXoboR1nDO8UYGbv3oPKlSufYseO48zuunb1ivbu22VIzYTunAUYTh3s/saQeOvXr688eQq4BBAI0QQH39Hy5csfITdH1BdqLAAoONdSpSo6PVaUet69+3+qV6+ORo0a9cjhAAiUHOc+8AOEiK6E/3uPj0B0BQikMUZkH330kSpXriwmA7IIEiVKZLgLlNzFLA4CIYbQAAFUzz5W2p69Y/HSowQrY4jiGS8KeAWkY+L1sDXbEEPotgg3sLoMz0iJnDhxoiFn8gJbv369OY8XXnjBkCvHjx9vVsTwIDxtltRyVCcpWud9O+iuAq8HQkoIEyBQzhcvEeRRR+zQoUMCmKGdEPqe4F7hb3HtgMmnn37acEdeeeUVu9ktER2bexA3M/wViLqhjWNj9tQMyeD58MMPVbRo0XDFgcLqA8fmfiPrhlh4aCNEY++ceS547gjP8Hz4AhxYfeNZp0InzzSkZlvDjc/HXp9Tp06t999/X3Xr1jXPsLPGdYArQNVFyM2hLbxjE8og44oFT+jrCFCz0nHt9dvZfjq7vd+D4OyIxbDtoytAcPQykDEAwYcHGAQOIrfShcIDCI62z3YwjYnZYmQZwI4PXbs9PIDgzLFw/ZKeh6GqyCSHToQfIDw6iryQb1y5qWD+bCfEcPbsWaGFYJsG68x1sLblHiLbBsIsnipSZR3Ri3DlWKH3wbNWrVo1k/L76aefGnKtLwxgAC8IwAroBmTlyPGwvoEv+uDsMaiKiEdkzZo1GjFihCE6+wq4oIAKcGfcACGACEcne0AHz3e9evXMWPva/ADB1yMexY4X0wECCBzyEqx1VhZduz6UwvUUQOCSQqKEEY8rkJdAaPMUQNizZ4+ZFFhVoNXASsmfxfD4Q8WK/uixC4oXO5aSJw1ZEcaKbeCCAQzwPrgmZIS4aoAQAAFa+ViSJEmMLkadMASvXD2Ovf3gJwBMADpY4cKFTWYMffC2WZkdTHgY3gK8WRHJVnu7X2G1z71AsSOeFcsACe+++67Xu4TXp2XLloKjhMHFAODbir6F14nTp08b0qI/zdHrl8p/AHsjENMBAufMxI30Mit7WxeeJwECaZGvvfaacUHb00HwFEDgpUwWxJQpU4xLkywPP0B4/M4OunNXU5fspIqRmlULKaZlCxBYUfLBteyqVaxY0azubI3rQajHGUKgs8dHfhdwSOjB1jJnzmzqdXjTg0GcH+Ik4TTL8JoNHjzYrMrDKtzk7Dl6cnsWCPPnz3+kSVbjuPWbNm3qyUM91hZenV9//fWRvxMuJCTpiAeD+wvQyTvMnsy6VzvPMxMcXpDV20f3tx/pIwBA2L9/v3mAInq4Wb2yQva2kiIvuNKvvKIf1q83LnvSBx8a2Qy2w8Z/EMV5+MfQL0jCC3gSeHmbieL+tsRYcTOz8rE9d3ttkSJJKIEVWpw48cwqNFbIP8ZYTQYGBipJ4sRGstpkXdzvJr9zHFYR5SvgBr7/XahtQjoXslPI/iHtP/LzPnfi+InjKlOmjPmO63fs2H9e5yBYMtTh3bSQQ6liiVCSL2sx2OvT2m37NeyzHzSpTzVlz5TqEYBAbJ2Km1a4xtkHkXDCggULzHUHeHJvWKJLWbNmNUW8vGW49y0FSFaXTDjPPBMiHYxOiD0Plif6QqYAbHpWxfwOUCF+bkmGM57uAC5P9DF0GwAaiH8864iZsShg9c7zznMPsdBKbfb08bm3uE8wgBthR6t2DGRVR+493hs83wANV7gR7p6THyC4O4LRfH+rFoMzp+EOQGCyZvILCz0TV0+UPIMKvfwo2Q6+WYg9+MWmy8Hmz49/Y/MXe7s5c9L3t40TN67iJ0h8/1ih2w9+2IeHHb7fbZvvrK0e9Nm2nZDfH57uw+8efGMzFubXYGnjiileBwjODBcu3P79+zuzi1e2nbRgq5at/1NT36updGnuawnEkvEeMMkSrnHXmIAARKF1Ntxt15H94dPgwoYP4EuDhEuIg4qnxNSjg5EuiPcDYGMtFnzVbzgahBcgFztjABpE2GrXru0SydWZY9nb1g8Q3B3BaL6/xcDHNR6RBwFgQI6wOwCBVC9QNcjeXrwUgJAjfzk17hg+qz+sYd+/Z5tWzhuteAkS6nZggBImTqrAgOuq32a4suR0rfRzWMe6E3RLv2z6Rjt+WKyiZWuryCvVlSix62I67txKA1sWdAkg4NVg9Wubex26H1YWw6ezFyh7zpzhdnPLjxv04bD3NXLkBz6vxWCvYzcCbqtqhy/0eslc6tCgaMgm9wECIQJHsxjCO2k/QPADhIieXVcBAvVbALN4HBwJSUTUD2e/9wMEZ0cshm3vaw4CaVe9evUyXoRGjRpp2LBhypYt24Ob312A8Ovm5SrySg39e3CXZn7YUe9/tsX8nix5GqVOZ7+Cm1uXNFga3rmCBn4SUschssxVgECMk+uA1DQ8CWLnoVdXFkD4btsvyvP8w4qa9s51zfJl6v7O26bQla9rMYQ39neC7pgXrQUQ+EnqHqEnyz3v6rWzAAKxbl8bXJR8+fKFCsN5vxfwX/DA4CmKbh4EFjnuuOutqLwzXA8WRoQ2nPUgUKQJTpMzAluevPp+gODJ0YyGbbkKEBAgIv7qrMGAhjBoGQ8qMVXagw1NPNAdD4LVri1A4G937gTp3wO/K168BCZEcO/eXZ05cUgJEibWhTPHlCn783o2TxEd+HO7MufIr3Onjirzsy/o8oVTuhV4U2dPHFbOF0roVsB1/f3bRqVMk8H8vUDxShrVtbIG2AEIe//YpBz5imnvri3KlutFJUuRxrSbIFES/fNbiE5C7oKvmLbcNXcBAnn+GLnYpGRRf96KzcYEgMC5kRd/K/DWA54H0t1UKO3QoYNbww+BDF2FyDCq/UFeQ28hMgwZatzf0cFIC6W/7hoZRHADGPPQFWLDaxvNErQhHDUAOwqNvCMjqqLqaJvObucHCM6OWAzb3lWAQDzPWTTM0LHy4KUc2hAqevHFF41ue8GXq7kcYggLICybOUylX2+mi2eP68eV01W/7QjN/6SHKtZ8xwCGH5Z/rnpthmrnj1/r1Zrv6PrVi0r1VEZNer+xmnedqEvnTuqb2cPVpt90LZjUS6/Waq+4ceMpY7a8GtnltccAwl+/btDN61dUuFQ1bVk7X0mTp1aR0m9qweTeqv32YC2fM9KAjXpthilRkuRu31U9G+U2Of14YJwx4uZMMg9W1/d3RjuCqozoLiCQhNhOdPYgWGMyce5mk4/etu5L5k+EWFDcRGnQ1Txz5JiZNCLDihQpYtIqI4vvwXPrzCQZGWNkHROF1ZMnT7rdBVJjKfDGmLOocdSo+0GmiaNWs2ZNI4pGnZjIMj9AiKyRjyLHdRUgwP4lnctZYxUH29/WcNWxCiLtCOZ7zgLlPQ4QPh3aTK37hDCKsfgJEmn6mLaq8/b7Bgh8NKCuugxfogn9ayv43j21GzhbZ08e0owx7TR8RkgqW/cGuTRy9u9a+sUQ1XhrgBInSWH+PuLdCo8BhK1r5ytN+izKU/AV/fP7T9q4aqba9J1q2mvd+3NtW/+l8SbUbvmes0Nod/tu9XOaCc5RARarEUijXI/Q3iD4KLQH0xohnpgCEO7eu6cZX+1U4zfyG/VDJg0+nGe3bt3MsDjjOvbIxXOjkcgiKbrR5Wi/KwqthEohhnpa84L3IxwvCmuhLRFRMTFvD6YfIHh7hKN4+64CBFb7rpjFQWBfSDelSpUyMVQeNlxp7nIQrD79e2CXZo4LVIlvSAAADJJJREFU4SBgAIQ3m/Q24YPjR/5Spmz5NGNsO9V5e/ADgNBu4CzFj59Qm9bM0eljB1So5Bua93H3RwDChwv3atFnfcMFCIf+/lmnjx9Q3HjxVbx8Pe3btUX7/9yuqg2766dVXyhLzoLa/fNa1XxrgMcmI0IMpN05s6JhXMjRppy2rVcH8h7XBVEpgFtMCTGEvl8BRifPXdUPOw5q3JgR6tenp2IHHDdhFuPJKljQcDPgZfDSJp0PZU7ufVLmuF8JzeBqJh0XpU6EbUgBJN2PlR9gAyY6vA7AGGlueGzYliI/eABog5Xlzp07VaxYMfN/jkkfCL3BE+F6kNLI9mxHH7guuPdh5sODQLIbwSRWyfxkO8JEiCnh3qZvPHNHjx41yof0H2DI9/wkZZHvSQmkDxDj8LbA0SBNj7ZI6eSdgZwwf6dvpUuXNql49Ak3Pt4n7iu2swjNkEHpO+dAUSW+pwiWdc6MBWqk/J1+wA3hvUA/GEPqUpAFwO98x/+ZPAGv/J8+453MmTOn0Whg/OkjxyAcwLju2LHDjDPp2qQIo10CL2D79u1mvPi/ldVFX3/66SezH2mduPpRy6QPQ4cONUW+4E/VqlXLeNg4DoRCjs/1pZ9cb46Hdw6+C/3iutNniMF8j/eJeiCcP+dNiipl5vHMcL9FNlj1AwRXZrkYtE9kAQReNoACNOptSWIAhKezF3pkte/KcP9v83J9PWOwhk7doXjxEwqX/zezP1CmbHmUp1BZFStXRx/2qqaGHUYpecq0Bkw06jBGv25eobJvvKVft6xQ0bK19P1Xk5QmfWYlTER2QrAKvfyG5k/qqTcadFP6Z3Lq2OE/NXVkK5V5vbkJVcBrSJYyrV56pYa+XTBWlet11rGDu5UuUw5lz11YY3q+oXQZnzWn9HSWPKpc17kiOvbGgmIvg1sXMbr5VapUcWq4LJIiL2ImEVbRiPDYlrqNqQCBgbp8LUBrt+7XvqPnpbu3VSpvSC0NCIetW7c2wlekMPJB5wAQBocGoRvAE140JkhW8ugfMEmTRke4h8kBTwyTSd68ec0EgTAPWTxsSw0N6jvQBqAElzWTDyqPqH5C/gOkMWmwakUQi+2ZQCD6MkGx0gQksB/bknZICiJt8WGi4xrDs9i6davJxSc8SM0BQgNMUnwPEGAy5Hs8KqgOUmSJyQ1tBaScLdBBPwAkZL5AoqPWhDUujBu1GyCpMmb8ZLzQT+DveAmJw1uTK+fCuQKGIMtyHkzGADPGn3uaMSQUVKNGDQPE+I5JmEmUiR5gQJ8JeVKsCfAGuKCfnCf3L+0yNpbqI+fD+6dz585mLOkH/CjOi3Gjr++8847pG+EE+s254vZnLAEN7AdA4DuuAeCJWi+UisaTBwBFPI36EEi8AwYgZDOe6IXgLQB4QUAEIPAdzyHvxNC1YZx6qD24sR8geHAwo2NTvgYIuM1A2bxceNhDGwAhVfoc6jRkoVvDSZjgXvA9xYnzsBojE6nluYgVK7b4v1WlLvjeXcWKHUfBwffMKgr3M9vwk78Z2aL71fQgOMaORSnhWOZ7/m8hff7P/ux7D80Hsw9qBSHiSctmDVf1Zn1NPy6dO2GIjpmy5XXrXEmzXLt4rFl9OVtW1wIIkOx42dpLdY3JAIGB5+pYzPTY90W0mDit+4CfrLC5fvy0TTcL/f+Q+yVEuMu6J6x9rXsvdFvW9lZb1j1k9YG/c11s/2/1iYkIGWFErOztTx+s9qxztP5v3XT2WPm2fbbO22qLvtg7B/pkr4+h+x7W/rbHoW/W8cw1uv9cWb+HHmP+Hta1cWY8rXG112fr3CyAxJgjtR163G3DdbbvBWu8wzov65zdehl4eGc/QPDwgEa35nwNECIaH0IQwz4Yq0YdRit3gdKR7mKLqL/OfL/n57VCpyFf4XJKkDCJEiROpkxZ8zjTxGPbXjp/UlM/aKXUyeM90Ht3pkFWjrywwtPAiOkAwZnximrbcu1Y6TJZ+c03I0DlVbwjjDkeg5hsfoAQk6+uA+cW1QACXcZNuP3Xf1S41JvGdR8n7uOeBgdOLUpuQqjjyqUzSpIkpQqWqGK8EK7a4X/+p1VfjtOJw3u0Zs1qr1Xz8wMEV6+Q9/fzAwTvj3HoI/gBgu/H3H/ESBoBAAJuZkdiXsTMiKO5o6ToyGlCQKLS2peLFodkCrgxiTpyvOi6TdCtAKVPl8Yw8ImDe8ssgJAqTZoIsyRuBQbq2tWrJp4blYSSvDU2kd0uxMPEiRM/KGEe2f15Eo5vZb7AO4nsLANvj7ffg+DtEY7i7UOEskqROtrVOXPmPCg64ug+rmwHKxiCFyxlvz06AlYGCGQ4bxta8Oj9O2OQHYnPPklG7BkCHSQ52xp4kB49IZNLu5AjIUtGJItuO+5kDkCA83X9gah67cnyILMBg5RJ0aawKiUCBhhzR64hxEXAGtkfMcX8ACGmXEn/efhHwD8CkToCpNqhfgdj3lJnBDRAInRmQg/rJEhPhOEOoGf16qihWQJ7H3KwO0YqLCAjqlVsdPacSGsk24KxxIOKUBalqsmeCG14aMiuIPPDXu0YtiejgqyJhQsXGk8sacIxxfwAIaZcSf95+EfAPwKRPgJMKG+++aYJ21lmMe490Tl0FAj5OAMQPHFc2pg0aZLROGBSje5GCXnCmKRBvvXWW8bDguS7PUN2nNRUewCBonN4OEl3jInmBwgx8ar6z8k/Av4RiJQRACBUr17d6BPgPYCvw+SBtgG1H+DwEIagyBGaFeT5IyKEYBC58YgqsRJFM4G24HIAMJi8CFNQnImcebwV5OUzacHZQWcAcaXBgwebFfHKlSuNEibudESWmMjoS79+/Yy+ADoA8+fPN8JkVjuIHPE9IIR8fwSU0AFgP9JgWRkj3kM/o7sBEPDs8JPzwuMDZwbJbAoroVFBWAFdBAsgEOJhHBDAwlNEyjYiVVwDvAwUr6pXr575nTbgbDHujPfLL/+/vTu8TR4IgjCccmgh7SDRAV1QDwXRSfRYOskCFOQoCBve+/NJiXHMnD/t7Oze7Pc0WpzSwHAJyXrV/I4lexdBWIJW14ZACITALwgMgsBsyhFSznmCNwLAUEgmqlYtcBiKJStnxKMMYPaFa/hRkL+Z9QgoDIAEL86OQ0FgxsOIiSOiz5PM2WHz7mfOMy9pyI4FL0SDNTDnP8HNvZEKzoZIiTo8wx/38Dtuf0yXGBuZP4AsMPnxbFtfvgMsBHLYOSpqOaGg1KCUgizpgWJkZN8Qs9G7wGCJ7wjyQIVAAg+Hw4QNV0WkikJB7YGbvi2ERF8OjHe73fQerH1FENa+Qz1fCITAZhAYBEGWaMnuBRsEQbChBLD6RRAEbFk6UmCxaJa5cx/kaihL5cJnAqHrKAiDIFAS2DAPy3PBnRqgHn7dJDcIAtIgu1WDnxME7o7UBJmw0zCCpkD3zgQBKTKgC74slREki5soV0i9BI6QcnxlRY4gUBDYNSNPiME1QdDHgHD5HDdNjowUIwTDxE+Ez+eoFhGEzfyX7kFDIARC4H8QIOkrMSAEllKAoCzIKzNoYGSviyC4TuYpyxRUTNZk26skQKpGKJQa2ACTwAU0sresXkCjTvAMYVOMFAg87n3tpokg+HtcFz2LIIcgCFKkb1ktguB+ngcxMV/C3AnlD8HRUdqRXXNB3fpChKgA8BPU7QUrZmoPe2luibBHFBAoig1ihdwpGVB57DHVQAMoFcHJHcSOsoMIUn68D0oJ7s0KG9lATiIIW3+Dev4QCIEQWIjA5XKZ+gSUBAR9wd9cC9m5gEFmJlXL9DUzkrfVqmX/ArDgbciQTPN8Pk/BmwphHoOgpo8BgSD1K0s42aC2LUsVuMjajkHO1/F4/Nrv99OZfc92Op2mZ9GjoGwhQMpwBTZHIpVHTFU1qwG5kCl7bjMP9EgYAf7qIUILt+XmcrgL6voP7Ie5DL4zjBAxZIpC42ccE+0HVQAxYxFPKdLcSNnRr2APHAc2VwbJUjqyR8iGJkbkTd+JspKZFgiD/oa1r0oMa9+hni8EQuBtEVBmoDIIOiPojhHc8655P9PT4F9n7cdSlpD5/3UJXjJkfQaOL879GvxOwFSa2DohWIIPnO3LvVkx87kL8zkL9/BBDtxj6Qj2Jc/67GsjCM9GuPuHQAiEwEoRQDDI5TJjsncrBOYIRBB6H0IgBEIgBEIgBG4QiCD0UoRACIRACIRACEQQegdCIARCIARCIAQeI5CC8BijrgiBEAiBEAiBj0MggvBxW94XDoEQCIEQCIHHCEQQHmPUFSEQAiEQAiHwcQj8ALhaiOdT0naWAAAAAElFTkSuQmCC;" vertex="1" parent="1">
          <mxGeometry y="129" width="600" height="250.38" as="geometry" />
        </mxCell>
        <mxCell id="CcqkCIG_LshQ7bS7BJzC-3" value="" style="rounded=1;whiteSpace=wrap;html=1;" vertex="1" parent="1">
          <mxGeometry x="236" y="462" width="84" height="25" as="geometry" />
        </mxCell>
      </root>
    </mxGraphModel>
  </diagram>
</mxfile>
